<?xml version="1.0" encoding="UTF-8" standalone="no"?>
<svg
   version="1.1"
   width="735"
   height="490"
   style="clip-rule:evenodd;fill-rule:evenodd;image-rendering:optimizeQuality;shape-rendering:geometricPrecision;text-rendering:geometricPrecision"
   id="svg110"
   xmlns:xlink="http://www.w3.org/1999/xlink"
   xmlns="http://www.w3.org/2000/svg"
   xmlns:svg="http://www.w3.org/2000/svg">
  <defs
     id="defs110">
    <linearGradient
       id="linearGradient117">
      <stop
         style="stop-color:#a8d5ad;stop-opacity:1;"
         offset="0"
         id="stop117" />
      <stop
         style="stop-color:#6fc6ad;stop-opacity:1;"
         offset="1"
         id="stop118" />
    </linearGradient>
    <linearGradient
       xlink:href="#linearGradient117"
       id="linearGradient118"
       x1="709.86713"
       y1="-20.417265"
       x2="709.86713"
       y2="-203.84587"
       gradientUnits="userSpaceOnUse"
       gradientTransform="matrix(2.2496787,0,0,1.3252833,-1244.9218,267.87193)" />
  </defs>
  <rect
     style="clip-rule:evenodd;fill:url(#linearGradient118);fill-rule:evenodd;stroke:none;stroke-width:0;stroke-dasharray:none;stroke-opacity:1;image-rendering:optimizeQuality;shape-rendering:geometricPrecision;text-rendering:geometricPrecision"
     id="rect117"
     width="735.67163"
     height="236.77684"
     x="-0.335825"
     y="-1.3232368" />
  <g
     id="g12"
     style="stroke:none;stroke-width:0;stroke-dasharray:none;stroke-opacity:1">
    <path
       style="opacity:1;stroke:none;stroke-width:0;stroke-dasharray:none;stroke-opacity:1"
       fill="#619d7e"
       d="m 734.5,129.5 c 0,15 0,30 0,45 -0.891,0.61 -1.891,0.943 -3,1 -0.248,-4.311 -0.581,-8.644 -1,-13 -1.208,3.622 -2.208,7.289 -3,11 -1,0 -2,0 -3,0 0.051,-3.041 1.051,-5.708 3,-8 -0.233,-1.432 -0.9,-1.932 -2,-1.5 -0.876,1.586 -1.876,3.086 -3,4.5 -0.989,-3.607 -1.323,-7.274 -1,-11 1.179,-3.827 2.179,-7.827 3,-12 0.653,3.775 1.653,7.442 3,11 -0.831,1.973 -0.998,3.973 -0.5,6 0.536,-2.369 1.703,-4.369 3.5,-6 -2.486,-2.078 -3.486,-4.745 -3,-8 1.373,0.157 2.707,-0.01 4,-0.5 -0.935,-2.381 -1.268,-4.881 -1,-7.5 1.401,-4.174 2.234,-8.507 2.5,-13 0.278,0.916 0.778,1.582 1.5,2 z"
       id="path12" />
  </g>
  <g
     id="g19"
     style="stroke:none;stroke-width:0;stroke-dasharray:none;stroke-opacity:1">
    <path
       style="opacity:1;stroke:none;stroke-width:0;stroke-dasharray:none;stroke-opacity:1"
       fill="#609680"
       d="m 734.5,184.5 c 0,1.667 0,3.333 0,5 -0.855,2.778 -2.188,5.445 -4,8 -3.352,-1.405 -3.518,-2.739 -0.5,-4 -0.352,-4.042 1.148,-7.042 4.5,-9 z"
       id="path19" />
  </g>
  <g
     id="g22"
     style="stroke:none;stroke-width:0;stroke-dasharray:none;stroke-opacity:1">
    <path
       style="opacity:1;stroke:none;stroke-width:0;stroke-dasharray:none;stroke-opacity:1"
       fill="#9ccab2"
       d="m 13.5,185.5 c 0.4258,1.028 0.4258,2.361 0,4 -1.291,-0.237 -2.291,0.096 -3,1 -1.08617,-0.12 -1.75284,-0.787 -2,-2 0.5728,-2.585 2.2395,-3.585 5,-3 z"
       id="path22" />
  </g>
  <path
     d="m 659,122.5 c -0.77399,5.48796 -1.60701,10.82104 -2.5,16 0.162,2.02699 -0.005,4.02701 -0.5,6 -1.56299,1.22499 -2.73001,2.72501 -3.5,4.5 1.12799,1.46799 1.794,3.13501 2,5 -1.12899,5.40196 -2.46201,10.56803 -4,15.5 -0.97299,2.44798 -1.306,5.11502 -1,8 v 6 h 3 v 3 c -1.98399,-0.117 -3.65001,0.55001 -5,2 -0.74299,-1.40799 -1.57701,-2.74101 -2.5,-4 -1.54899,8.02094 -3.04901,16.02106 -4.5,24 h -3 c -0.226,-2.74898 0.10701,-5.41602 1,-8 -3.19898,-2.31498 -3.86499,-5.31503 -2,-9 -2.08199,-2.30698 -2.41499,-4.80702 -1,-7.5 -2.90298,-4.37697 -4.403,-9.21004 -4.5,-14.5 -0.667,-1.33299 -1.333,-1.33299 -2,0 -0.335,4.23597 -1.16801,8.23603 -2.5,12 -0.404,1.25599 -1.07101,2.42301 -2,3.5 0.95899,2.11999 1.126,4.28702 0.5,6.5 -0.308,-0.80799 -0.808,-1.475 -1.5,-2 -1.57799,1.13999 -3.24401,1.64 -5,1.5 2.65998,-1.65699 2.65998,-3.32401 0,-5 2.25098,-2.00199 3.251,-4.50202 3,-7.5 -3.33798,0.391 -4.33799,-0.77602 -3,-3.5 -2.07499,-4.47197 -4.07501,-8.97203 -6,-13.5 1.16299,-2.82698 1.16299,-5.49402 0,-8 -0.666,-3.18898 -1.333,-6.52302 -2,-10 -0.667,3.81297 -1.334,7.47902 -2,11 -1.10799,1.32299 -1.10799,2.82301 0,4.5 -1.25599,1.47899 -2.25601,3.14501 -3,5 0.085,1.10699 0.419,2.10701 1,3 -0.91599,0.374 -1.75001,0.874 -2.5,1.5 -0.83699,4.01397 -1.67101,8.01403 -2.5,12 1.05199,-0.149 2.05201,0.017 3,0.5 -2.66698,1.99999 -2.66698,4.00001 0,6 -1.63399,0.494 -3.30101,0.66 -5,0.5 0.019,-1.55999 0.352,-3.06001 1,-4.5 l -3,-4.5 c -1.04599,-6.85095 -2.71302,-13.51805 -5,-20 -1.29899,0.59 -2.132,1.59001 -2.5,3 -0.498,3.31698 -0.665,6.65002 -0.5,10 -1.69899,0.027 -3.03301,0.69401 -4,2 -0.128,4.38097 0.20501,8.71503 1,13 -1.99999,0.333 -4.00001,0.667 -6,1 2.01899,11.91792 0.85197,12.58493 -3.5,2 -1.52799,6.08496 -3.36101,12.08504 -5.5,18 -2.57498,-2.54498 -2.57498,-5.21202 0,-8 -0.82499,-0.88599 -1.82501,-1.219 -3,-1 -0.387,-4.73997 -0.387,-9.40703 0,-14 -2.51298,-4.03497 -4.34601,-8.36903 -5.5,-13 -0.86099,4.50897 -2.19401,8.84203 -4,13 -0.333,3.99997 -0.667,8.00003 -1,12 -2.39398,0.636 -4.89402,0.636 -7.5,0 0.085,-2.42898 1.08501,-4.42901 3,-6 -0.88299,-1.04799 -1.55,-2.21501 -2,-3.5 0.78699,-2.09899 1.12,-4.26602 1,-6.5 h -3 c 0.182,-2.17498 0.84901,-4.17501 2,-6 -0.203,-1.70799 -1.03601,-3.04101 -2.5,-4 -0.519,-7.11595 -1.68601,-14.11605 -3.5,-21 -1.97399,6.10596 -3.64101,12.10604 -5,18 -1.10399,7.10295 -2.43701,14.43605 -4,22 0.17,2.21498 0.83701,4.21501 2,6 -1.22799,1.82099 -2.89401,2.821 -5,3 -2.21698,-4.65597 -3.384,-9.65604 -3.5,-15 -1.45899,-2.94298 -3.12601,-3.27598 -5,-1 -1.85499,5.54496 -3.022,11.21204 -3.5,17 -1.69899,0.16 -3.36601,-0.006 -5,-0.5 1.16799,-1.40599 0.83499,-2.57201 -1,-3.5 1.76099,-1.75299 3.09401,-3.75302 4,-6 -0.333,-0.667 -0.667,-1.333 -1,-2 -1.33299,0.99999 -2.66701,2.00001 -4,3 l -1,-1 c 0.667,-0.99999 1.333,-2.00001 2,-3 -1.80699,-0.89499 -3.14001,-2.22801 -4,-4 0.667,-1.66699 1.333,-3.33301 2,-5 -0.299,-2.31498 -1.13201,-2.31498 -2.5,0 -0.175,-3.71097 -0.67501,-7.37803 -1.5,-11 -1.47199,2.11599 -2.63901,4.44902 -3.5,7 -0.687,2.06799 -0.51999,4.06801 0.5,6 -0.99999,0.667 -2.00001,1.333 -3,2 2.87898,4.16897 2.54598,7.83602 -1,11 2.98398,3.19698 2.65097,5.86401 -1,8 -0.7,-2.51498 -2.03301,-3.18199 -4,-2 -0.667,-2.99998 -1.333,-6.00002 -2,-9 -2.69698,1.54499 -4.69701,0.87898 -6,-2 4.29997,-2.58198 3.96697,-3.916 -1,-4 0.126,-1.69999 0.79301,-3.20001 2,-4.5 -0.83999,-1.17099 -1.67301,-2.33801 -2.5,-3.5 -0.301,-3.47998 -1.13501,-6.81302 -2.5,-10 -1.52099,4.17597 -2.355,8.50903 -2.5,13 -0.383,0.556 -0.883,0.889 -1.5,1 -0.126,1.69999 -0.79301,3.20001 -2,4.5 1.00899,1.16799 2.00901,2.33501 3,3.5 -1.30999,2.97298 -3.31002,5.30701 -6,7 1.33299,1.66699 1.33299,3.33301 0,5 0.615,1.61599 1.61501,2.94901 3,4 -4.18097,1.00599 -4.84798,3.00602 -2,6 -0.515,1.72499 -1.18201,3.39201 -2,5 -0.667,-2.33298 -1.333,-4.66702 -2,-7 -1.34999,1.44999 -3.01601,2.117 -5,2 0.162,-2.02699 -0.005,-4.02701 -0.5,-6 -0.414,-0.457 -0.914,-0.791 -1.5,-1 -1.21799,6.98295 -2.55101,7.31696 -4,1 0.333,-0.667 0.667,-1.333 1,-2 -2.16798,-2.33198 -3.83501,-4.99902 -5,-8 -1.05599,3.11298 -2.38901,6.11302 -4,9 1.73599,3.93997 0.40297,5.607 -4,5 -0.338,-2.65698 0.32901,-4.99001 2,-7 -0.89099,-1.08999 -1.89101,-1.08999 -3,0 -0.74299,-1.40799 -1.57701,-2.74101 -2.5,-4 -0.529,-2.08499 -0.029,-3.91801 1.5,-5.5 -0.146,-1.72699 -0.81301,-1.89399 -2,-0.5 -0.667,-2.33298 -1.333,-4.66702 -2,-7 -1.51699,3.72797 -3.18301,7.39503 -5,11 1.44599,2.11799 2.113,4.45102 2,7 -2.98698,-0.078 -3.65299,1.08902 -2,3.5 -1.03199,3.25498 -3.03202,4.08799 -6,2.5 0.667,-0.99999 1.333,-2.00001 2,-3 -2.08199,-3.88897 -2.41499,-7.88903 -1,-12 h -3 c 0.422,-4.22197 -0.24501,-8.22203 -2,-12 l -1,1 c -0.74399,2.94298 -1.244,5.94302 -1.5,9 -3.41898,5.82596 -4.919,12.16005 -4.5,19 -1.99999,0.667 -4.00001,1.333 -6,2 0.416,-2.85998 -0.58402,-5.02601 -3,-6.5 0.92799,-3.22598 0.59499,-6.39302 -1,-9.5 -0.80699,4.58797 -2.30702,8.92203 -4.5,13 -1.10999,1.53699 -2.61001,2.203 -4.5,2 v -8 c -1.32199,0.17 -2.48901,-0.16301 -3.5,-1 -0.617,-2.53498 -0.11699,-4.86801 1.5,-7 -0.82499,-0.88599 -1.82501,-1.219 -3,-1 -0.226,-2.74898 0.10701,-5.41602 1,-8 -0.93799,-2.74598 -1.93801,-5.41302 -3,-8 -1.76799,-2.42198 -3.26801,-5.08802 -4.5,-8 -0.202,1.75599 -0.70201,3.42201 -1.5,5 -1.31899,2.28598 -2.98501,4.28601 -5,6 0.12,1.69899 0.454,3.36501 1,5 -1.77099,3.41598 -2.771,7.08203 -3,11 h -3 c -0.256,2.41198 0.74402,4.07901 3,5 -1.67299,1.58599 -3.67302,2.253 -6,2 0.174,2.36098 0.507,4.69402 1,7 h -3 v 4 h -3 c 0.086,-2.17698 0.75301,-4.17701 2,-6 -1.25999,-0.88199 -2.42601,-1.88201 -3.5,-3 -0.303,-3.49898 -1.13601,-6.83202 -2.5,-10 -1.16399,-3.07798 -2.66401,-3.41198 -4.5,-1 -0.333,1.99999 -0.667,4.00001 -1,6 -3.02698,2.77298 -3.85999,6.10603 -2.5,10 -1.80399,1.26799 -3.80402,1.935 -6,2 -0.143,1.76199 0.19101,3.42901 1,5 -1.75899,1.25399 -3.25901,0.92099 -4.5,-1 0.569,-3.78797 -0.59702,-7.12202 -3.5,-10 -0.467,-4.43297 -2.30102,-8.10002 -5.5,-11 -1.22099,0.77199 -2.22101,1.77201 -3,3 -2.27098,5.60896 -4.43701,10.94204 -6.5,16 0.76299,1.21899 1.76301,2.21901 3,3 -1.18899,0.92899 -2.52201,1.262 -4,1 0.219,-1.17499 -0.11401,-2.17501 -1,-3 -1.35199,1.01799 -2.352,2.35101 -3,4 -1.83199,0.74799 -3.49901,1.74801 -5,3 l -1,-1 2,-2 c -1.33299,-0.99999 -2.66701,-2.00001 -4,-3 2.91298,-2.40098 2.57897,-3.734 -1,-4 v -7 h -3 c -0.95999,3.40198 -0.95999,6.73502 0,10 0.99699,-0.03 1.664,0.47001 2,1.5 -1.45799,1.75199 -2.79101,3.58501 -4,5.5 0.333,0.667 0.667,1.333 1,2 -2.10699,2.02999 -4.10701,4.19702 -6,6.5 2.25398,1.05399 2.58699,2.55401 1,4.5 1.50599,1.24699 3.00601,1.24699 4.5,0 0.492,1.04899 0.32599,2.04901 -0.5,3 2.07399,5.16796 3.74001,4.83396 5,-1 2.25398,-0.624 3.92101,-1.95701 5,-4 l 1,1 c -0.99799,4.47697 -2.66502,8.64303 -5,12.5 1.49599,0.507 2.66301,0.007 3.5,-1.5 -0.74399,2.81098 -0.57699,5.64402 0.5,8.5 -0.522,0.94999 -1.18901,1.78401 -2,2.5 l 1,1 c 1.34999,-1.44999 3.01601,-2.117 5,-2 -0.73099,2.09899 -0.73099,4.09901 0,6 0.99999,-0.667 2.00001,-1.333 3,-2 1.02399,1.35299 2.35701,2.02 4,2 0.695,-2.47798 2.19502,-4.47801 4.5,-6 0.492,1.04899 0.32599,2.04901 -0.5,3 0.419,1.17199 1.08501,2.17201 2,3 4.19597,-2.52398 4.86298,-5.69103 2,-9.5 1.57499,-1.11999 2.575,-2.62001 3,-4.5 -0.656,-1.95299 -0.989,-3.95301 -1,-6 3.89697,-0.53 7.23002,0.47002 10,3 0.557,2.21798 0.557,4.55102 0,7 1.05199,-0.149 2.05201,0.017 3,0.5 1.56899,3.31598 0.90198,6.14902 -2,8.5 0.74799,1.91599 0.74799,3.91601 0,6 2.99998,-0.667 6.00002,-1.333 9,-2 0.219,1.17499 -0.11401,2.17501 -1,3 -2.11699,2.29598 -4.45102,4.29601 -7,6 2.25898,2.90998 5.25903,4.576 9,5 -2.70898,2.67498 -5.37602,5.34202 -8,8 2.02599,3.72397 4.35902,3.89098 7,0.5 1.75899,-0.79799 3.42601,-0.63099 5,0.5 -3.31698,2.38098 -4.817,5.38103 -4.5,9 -1.63499,1.22599 -3.13501,2.55901 -4.5,4 0.667,0.333 1.333,0.667 2,1 1.53599,-0.74899 2.86901,-1.74901 4,-3 1.90899,0.84799 3.90901,1.182 6,1 -0.388,2.18498 -1.38801,4.01801 -3,5.5 1.77399,3.74797 3.10701,7.58103 4,11.5 h 5 v -9 h 3 c 0.039,-2.82098 0.70501,-5.48802 2,-8 0.586,0.209 1.086,0.543 1.5,1 2.82498,-1.68799 5.99102,-2.521 9.5,-2.5 1.63499,-1.74799 3.63502,-2.915 6,-3.5 -0.99999,-1.66699 -2.33301,-3.00001 -4,-4 -0.572,-2.41698 -1.57201,-4.58401 -3,-6.5 1.97299,-0.495 3.97301,-0.662 6,-0.5 0.117,-1.98399 -0.55001,-3.65001 -2,-5 0.333,-0.667 0.667,-1.333 1,-2 -2.14998,-1.64899 -4.15001,-3.48201 -6,-5.5 1.97299,-0.495 3.97301,-0.662 6,-0.5 -0.607,-4.40297 1.06003,-5.73599 5,-4 0.82699,-1.66199 1.99301,-2.99501 3.5,-4 0.046,-5.61096 1.21302,-10.94404 3.5,-16 1.30299,1.21799 2.303,0.88499 3,-1 2.22098,5.10496 3.555,10.43904 4,16 1.47799,-0.262 2.81101,0.071 4,1 -1.48599,1.80199 -2.486,3.80202 -3,6 3.99997,-0.667 5.667,1.00003 5,5 1.47799,-0.262 2.81101,0.071 4,1 -1.83299,1.46799 -2.16599,3.13501 -1,5 1.72499,-0.515 3.39201,-1.18201 5,-2 0.82999,-4.30197 2.33002,-8.30203 4.5,-12 1.11299,1.21099 2.28001,1.21099 3.5,0 0.72299,2.56998 1.89001,4.90301 3.5,7 0.497,2.64598 0.664,5.31302 0.5,8 h 3 c -0.219,1.17499 0.11401,2.17501 1,3 3.19698,-1.22899 5.19701,-0.062 6,3.5 1.33299,0.333 2.66701,0.667 4,1 -1.55599,1.59899 -3.22301,3.09901 -5,4.5 0.209,0.586 0.543,1.086 1,1.5 -1.53699,1.10999 -2.203,2.61001 -2,4.5 2.02699,-0.162 4.02701,0.005 6,0.5 -1.36599,1.59999 -2.366,3.43301 -3,5.5 -1.48099,0.97999 -2.81501,2.14701 -4,3.5 2.16298,0.245 3.83001,1.24501 5,3 3.31698,0.498 6.65002,0.665 10,0.5 -0.381,2.44198 0.28601,3.10899 2,2 3.56398,3.90397 5.564,8.57104 6,14 h 5 c 1.02099,-3.55498 2.35401,-7.05502 4,-10.5 -1.00899,-1.16799 -2.00901,-2.33501 -3,-3.5 2.31298,-0.77299 4.64602,-1.44 7,-2 1.32499,2.82898 3.32502,3.49599 6,2 -1.82199,-1.50999 -3.82202,-2.84301 -6,-4 l 2,-2 c -1.99999,-1.66699 -4.00001,-3.33301 -6,-5 0.99999,-0.333 2.00001,-0.667 3,-1 3.10098,1.51899 6.43402,2.185 10,2 0.079,-1.42999 -0.25401,-2.76401 -1,-4 -2.62898,-1.30299 -4.96301,-2.96901 -7,-5 3.35398,-0.599 6.35402,-1.93201 9,-4 -2.66698,-2.33298 -5.33302,-4.66702 -8,-7 l 1,-1 c 2.33298,0.667 4.66702,1.333 7,2 0.333,-0.5 0.667,-1 1,-1.5 -0.82199,-3.96597 -1.82201,-7.79903 -3,-11.5 4.73997,-0.092 5.73998,-1.92503 3,-5.5 2.95998,-3.84297 6.96004,-5.34299 12,-4.5 -0.308,2.42398 0.026,4.75702 1,7 1.21999,0.387 1.887,1.22001 2,2.5 -1.42099,1.41899 -2.421,3.08601 -3,5 1.39299,2.35598 3.22602,2.85599 5.5,1.5 0.311,-1.24199 -0.18901,-2.24201 -1.5,-3 l 1,-1 c 2.50898,1.42099 4.84302,3.08801 7,5 2.29298,-0.73599 4.62602,-0.902 7,-0.5 -0.457,-0.414 -0.791,-0.914 -1,-1.5 1.99999,-0.667 4.00001,-1.333 6,-2 l -2,-2 c 1.33299,-1.99999 1.33299,-4.00001 0,-6 0.77399,-1.21099 1.60701,-1.21099 2.5,0 0.167,-0.667 0.333,-1.333 0.5,-2 -2.87398,-2.83998 -3.87399,-6.17403 -3,-10 3.74697,2.25398 6.58001,5.25403 8.5,9 1.05899,-0.13 1.892,-0.63001 2.5,-1.5 -0.667,-1.66699 -1.333,-3.33301 -2,-5 2.02699,0.498 4.02701,0.33099 6,-0.5 -0.82999,-1.63499 -0.997,-3.30201 -0.5,-5 -1.83299,-1.49999 -3.66701,-3.00001 -5.5,-4.5 1.01699,-1.04899 1.184,-2.21601 0.5,-3.5 -3.42598,-1.85899 -3.25997,-2.693 0.5,-2.5 1.86999,1.36599 3.87001,2.53301 6,3.5 2.17898,-9.62793 4.17901,-19.29507 6,-29 0.667,4.66697 1.333,9.33303 2,14 0.95099,-0.82599 1.95101,-0.992 3,-0.5 -3.31998,2.49798 -3.65298,5.49802 -1,9 -0.88599,2.11199 -0.88599,4.27802 0,6.5 1.37299,0.157 2.70701,-0.01 4,-0.5 0.655,-1.48699 1.65501,-2.65301 3,-3.5 1.08299,0.86499 1.24899,1.86501 0.5,3 -3.47198,2.58598 -4.63899,5.91903 -3.5,10 1.44999,-1.15499 2.45,-2.65501 3,-4.5 2.56998,-0.72299 4.90301,-1.89001 7,-3.5 l 1,1 c -1.60199,2.20798 -2.93601,4.54102 -4,7 0.83999,1.76099 1.84001,3.42701 3,5 1.21899,-0.76299 2.21901,-1.76301 3,-3 0.333,0.5 0.667,1 1,1.5 -0.558,3.51398 -1.22401,7.01402 -2,10.5 -2.62498,3.95897 -5.62502,7.62602 -9,11 0.477,0.97799 1.14301,1.811 2,2.5 -1.53699,1.10999 -2.203,2.61001 -2,4.5 2.72598,0.236 5.05901,-0.59701 7,-2.5 3.49998,-4.83297 7.66703,-9.00002 12.5,-12.5 0.492,1.04899 0.32599,2.04901 -0.5,3 0.536,1.64499 1.20301,1.97799 2,1 -0.131,-0.87599 0.20201,-1.543 1,-2 0.91699,0.627 1.91701,0.961 3,1 1.81799,-2.50598 4.31802,-4.17201 7.5,-5 0.49,-1.29299 0.657,-2.62701 0.5,-4 1.99199,-0.172 3.65801,0.49501 5,2 1.38799,3.41098 2.054,6.74402 2,10 1.90899,-0.84799 3.90901,-1.182 6,-1 0.83399,3.18098 1.83401,6.34802 3,9.5 -0.145,0.77199 -0.478,1.439 -1,2 1.63399,0.494 3.30101,0.66 5,0.5 0.219,1.17499 -0.11401,2.17501 -1,3 -2.39998,0.518 -4.40001,1.68501 -6,3.5 2.65798,0.073 5.32402,-0.26001 8,-1 0.83699,-1.01099 1.17,-2.17801 1,-3.5 1.45899,0.067 2.79201,-0.26601 4,-1 -0.32,-3.39798 0.013,-6.73202 1,-10 0.95199,1.54499 1.285,3.21201 1,5 3.46898,0.95099 6.13601,2.95102 8,6 0.84799,1.12499 1.84801,1.12499 3,0 0.663,-3.77197 -0.004,-7.43902 -2,-11 2.24298,-0.97399 4.57602,-1.308 7,-1 -0.329,-6.43595 1.67103,-7.43597 6,-3 0.79799,-0.457 1.131,-1.12401 1,-2 -0.95799,-0.453 -1.792,-1.11901 -2.5,-2 -0.241,-2.78898 -0.90801,-5.45602 -2,-8 -2.52498,-1.54999 -4.35901,-3.71702 -5.5,-6.5 0.556,-0.383 0.889,-0.883 1,-1.5 h 6 c 0.007,-2.53799 0.341,-5.03801 1,-7.5 -1.97599,-3.88099 -2.643,-7.88101 -2,-12 1.84299,-0.188 3.51,-1.021 5,-2.5 0.381,-3.61897 1.38101,-6.95202 3,-10 -0.327,4.71398 0.007,9.38002 1,14 1.48799,-1.64899 2.488,-3.64901 3,-6 0.333,0.167 0.667,0.333 1,0.5 0.944,2.71899 1.277,5.55201 1,8.5 0.667,0 1,0.333 1,1 h 3 c -0.14,1.62399 0.52701,2.79 2,3.5 -2.54299,2.43899 -4.21,5.43902 -5,9 0.259,1.26099 0.92601,2.261 2,3 2.71799,1.07199 5.38501,2.23801 8,3.5 -0.811,0.716 -1.478,1.55 -2,2.5 1.02299,2.17699 1.19,4.34401 0.5,6.5 0.739,1.07399 1.73901,1.741 3,2 2.93899,-1.08799 5.77201,-0.75399 8.5,1 -2.01999,2.09899 -2.35399,4.43301 -1,7 2.32899,-3.65698 5.32902,-6.65701 9,-9 -0.82,-1.61099 -2.15401,-2.278 -4,-2 -0.262,-1.47799 0.071,-2.81101 1,-4 3.83898,-1.22099 3.83898,-1.888 0,-2 0.552,-1.83099 0.552,-3.49701 0,-5 -1.34999,1.44999 -3.01601,2.117 -5,2 0.223,-2.61399 -0.94401,-4.281 -3.5,-5 -0.409,-2.49099 -1.57601,-4.49101 -3.5,-6 0.989,-0.968 1.656,-2.13501 2,-3.5 -1.40599,-2.92499 -3.07301,-5.75801 -5,-8.5 0.5,-0.333 1,-0.667 1.5,-1 2.58499,2.96199 5.75202,4.462 9.5,4.5 -1.93899,-0.908 -2.939,-2.40801 -3,-4.5 2.47299,0.299 4.64001,1.29901 6.5,3 1.17399,-1.04399 2.34101,-2.044 3.5,-3 -0.246,-2.96999 -1.91202,-4.303 -5,-4 v -4 h -3 c -0.075,-2.70599 -0.408,-5.37301 -1,-8 2.71599,1.43999 5.54901,2.77301 8.5,4 0.399,-0.228 0.565,-0.562 0.5,-1 0.667,0 1,-0.333 1,-1 1.90399,0.238 3.23801,1.23801 4,3 0.709,0.90399 1.70901,1.237 3,1 v -6 c -0.77799,-0.656 -1.444,-1.48901 -2,-2.5 0.82999,-1.46499 0.996,-2.96501 0.5,-4.5 -2.26098,-1.27199 -2.76099,-2.93801 -1.5,-5 2.34098,1.03399 4.00701,2.70102 5,5 1.89099,-1.03599 3.72401,-1.03599 5.5,0 0.483,-0.94799 0.649,-1.94801 0.5,-3 h -4 c 1.35999,-3.11998 2.193,-6.45302 2.5,-10 1.31399,0.81299 2.48101,1.81301 3.5,3 2.42198,-2.22598 2.42198,-4.56002 0,-7 1.44799,-0.85399 2.78101,-1.85401 4,-3 1.67699,2.03999 3.34401,4.04001 5,6 0.333,-0.99999 0.667,-2.00001 1,-3 -1.33299,-4.42497 -2.66601,-8.75803 -4,-13 -0.663,1.54199 -1.33,3.20901 -2,5 -0.79799,-0.457 -1.131,-1.12401 -1,-2 -0.89799,-0.658 -1.89801,-1.324 -3,-2 0.80899,-1.57099 1.143,-3.23801 1,-5 -1.05199,0.149 -2.05201,-0.017 -3,-0.5 0.284,-1.95599 0.284,-4.12302 0,-6.5 -0.617,-0.111 -1.117,-0.444 -1.5,-1 -0.192,2.07699 -0.69201,4.07701 -1.5,6 -1.40599,-1.45099 -2.90601,-2.78401 -4.5,-4 0.77999,-2.22998 1.61301,-4.56302 2.5,-7 -1.84599,0.278 -3.18001,-0.38901 -4,-2 1.11099,-1.11099 1.778,-2.44501 2,-4 -1.88599,-3.42898 -2.886,-7.09603 -3,-11 -0.344,-3.06198 -1.01101,-6.06202 -2,-9 -0.85499,8.21794 -2.18801,16.21805 -4,24 -0.597,0.235 -0.93,0.73501 -1,1.5 3.68597,5.82996 2.35296,9.66301 -4,11.5 0.095,2.77198 1.42902,4.77201 4,6 -0.82499,0.88599 -1.82501,1.219 -3,1 0.088,3.02298 1.08801,5.69002 3,8 -1.82899,0.78199 -3.32901,0.11599 -4.5,-2 -0.708,-3.74897 -1.70801,-7.41603 -3,-11 -0.466,4.60897 -1.30001,9.10903 -2.5,13.5 -0.99999,0.667 -2.00001,0.667 -3,0 -1.47699,-2.14798 -3.47702,-3.482 -6,-4 -1.07399,-0.73899 -1.741,-1.73901 -2,-3 1.12499,-1.96299 2.45901,-3.79601 4,-5.5 -0.99999,-1.33299 -2.00001,-2.66701 -3,-4 1.39599,-1.35199 2.063,-3.01901 2,-5 0.321,-3.01198 -1.01202,-4.345 -4,-4 0.178,-3.47698 0.84501,-6.81002 2,-10 -0.011,-1.54499 -0.344,-2.87801 -1,-4 h -3 c 0.671,-5.99696 0.33799,-11.99704 -1,-18 -1.29399,-3.51498 -2.128,-7.18203 -2.5,-11 z"
     style="opacity:1;fill:#5da07b;stroke-width:0"
     id="path118" />
  <g
     id="g29"
     style="stroke:none;stroke-width:0;stroke-dasharray:none;stroke-opacity:1">
    <path
       style="opacity:1;stroke:none;stroke-width:0;stroke-dasharray:none;stroke-opacity:1"
       fill="#a1dab5"
       d="m 672.5,194.5 c 1.149,0.291 1.816,1.124 2,2.5 -0.243,3.003 -1.91,4.17 -5,3.5 0.183,-2.488 1.183,-4.488 3,-6 z"
       id="path29" />
  </g>
  <g
     id="g31"
     style="stroke:none;stroke-width:0;stroke-dasharray:none;stroke-opacity:1">
    <path
       style="opacity:1;stroke:none;stroke-width:0;stroke-dasharray:none;stroke-opacity:1"
       fill="#749e7b"
       d="m 303.5,190.5 c -0.666,4.849 -1.333,9.849 -2,15 -0.607,-0.124 -0.94,-0.457 -1,-1 0.666,-4.849 1.333,-9.849 2,-15 0.607,0.124 0.94,0.457 1,1 z"
       id="path31" />
  </g>
  <g
     id="g32"
     style="stroke:none;stroke-width:0;stroke-dasharray:none;stroke-opacity:1">
    <path
       style="opacity:1;stroke:none;stroke-width:0;stroke-dasharray:none;stroke-opacity:1"
       fill="#9cd1af"
       d="m 623.5,193.5 c 0.758,2.481 0.758,5.148 0,8 -5.725,-1.065 -6.058,-2.732 -1,-5 0.627,-0.917 0.961,-1.917 1,-3 z"
       id="path32" />
  </g>
  <g
     id="g34"
     style="stroke:none;stroke-width:0;stroke-dasharray:none;stroke-opacity:1">
    <path
       style="opacity:1;stroke:none;stroke-width:0;stroke-dasharray:none;stroke-opacity:1"
       fill="#5ea07b"
       d="m 115.5,194.5 c 0.169,2.412 -0.497,4.579 -2,6.5 2.095,2.393 3.428,5.226 4,8.5 -1,1.333 -2,2.667 -3,4 1.059,1.196 2.393,1.863 4,2 2.333,-0.333 2.667,-1.333 1,-3 1.545,-0.952 3.212,-1.285 5,-1 0.117,-1.984 -0.55,-3.65 -2,-5 0.825,-0.886 1.825,-1.219 3,-1 -0.351,-2.369 -0.518,-4.703 -0.5,-7 0.893,1.211 1.726,1.211 2.5,0 -0.667,-1 -1.333,-2 -2,-3 1.586,-1.673 2.253,-3.673 2,-6 1,0 2,0 3,0 0,2.667 0,5.333 0,8 1.175,-0.219 2.175,0.114 3,1 -1.545,2.697 -0.879,4.697 2,6 -0.826,0.951 -0.992,1.951 -0.5,3 1.494,-1.247 2.994,-1.247 4.5,0 -3.541,1.469 -4.541,3.803 -3,7 1.052,-0.149 2.052,0.017 3,0.5 -2.559,1.323 -3.225,3.157 -2,5.5 3.033,1.427 5.866,1.094 8.5,-1 1.152,-2.94 2.152,-5.94 3,-9 0.718,-0.951 1.551,-1.117 2.5,-0.5 2.33,6.158 4.663,12.324 7,18.5 1.822,-5.804 3.822,-11.47 6,-17 1.299,0.59 2.132,1.59 2.5,3 0.27,2.862 1.104,5.528 2.5,8 1.236,0.746 2.57,1.079 4,1 -0.16,-1.699 0.006,-3.366 0.5,-5 4.332,-8.111 7.166,-7.445 8.5,2 2.424,0.308 4.757,-0.026 7,-1 -0.825,-0.886 -1.825,-1.219 -3,-1 0.02,-1.643 -0.647,-2.976 -2,-4 1.578,-0.798 3.244,-1.298 5,-1.5 -2.123,-0.815 -4.123,-1.815 -6,-3 2.514,-1.452 5.18,-2.618 8,-3.5 0.431,-0.793 0.765,-1.627 1,-2.5 -1.009,-1.168 -2.009,-2.335 -3,-3.5 1.146,-1.219 2.146,-2.552 3,-4 1.028,-4.117 2.362,-8.117 4,-12 2.217,4.303 4.217,8.803 6,13.5 -0.235,0.873 -0.569,1.707 -1,2.5 2,0.833 4,1.667 6,2.5 -7.78,2.377 -7.447,4.544 1,6.5 -4,1.333 -4,2.667 0,4 -2.238,1.758 -3.238,4.092 -3,7 2.104,0.299 4.104,-0.034 6,-1 -0.667,-0.667 -1.333,-1.333 -2,-2 1.981,-4.978 4.315,-9.811 7,-14.5 2.403,-0.63 4.237,0.203 5.5,2.5 0.059,3.322 1.226,6.156 3.5,8.5 1.444,0.781 2.777,0.614 4,-0.5 -2.729,-1.867 -2.396,-2.867 1,-3 0.505,-3.021 1.172,-6.021 2,-9 -0.108,-0.942 -0.441,-1.775 -1,-2.5 1.368,-1.34 2.701,-2.674 4,-4 2.695,-8.31 4.695,-7.81 6,1.5 1,0 2,0 3,0 0.079,1.43 -0.254,2.764 -1,4 1.729,2.351 2.396,5.018 2,8 1,0 2,0 3,0 -1.14,2.525 -1.807,5.192 -2,8 1.322,0.17 2.489,-0.163 3.5,-1 1.403,-3.209 2.403,-6.542 3,-10 0.414,-0.457 0.914,-0.791 1.5,-1 2.424,5.846 5.091,11.512 8,17 0.529,-2.757 1.529,-5.257 3,-7.5 -0.928,-0.388 -1.595,-1.055 -2,-2 1.641,-5.784 3.975,-11.284 7,-16.5 1.816,-2.564 3.649,-2.564 5.5,0 1.798,5.334 3.964,10.501 6.5,15.5 -0.857,0.689 -1.523,1.522 -2,2.5 1.571,1.915 3.571,2.915 6,3 1.333,-6.96 3.666,-13.626 7,-20 1.569,1.214 2.402,2.881 2.5,5 1.302,0.585 2.469,1.251 3.5,2 -0.543,0.06 -0.876,0.393 -1,1 1,1.333 2,2.667 3,4 -1.649,1.474 -2.649,3.307 -3,5.5 1.783,3.638 1.283,6.805 -1.5,9.5 -1.308,-2.141 -2.808,-4.141 -4.5,-6 -0.333,0.667 -0.667,1.333 -1,2 2.767,3.535 4.434,7.535 5,12 -1.057,0.406 -2.391,0.406 -4,0 0.57,-3.921 -1.097,-6.088 -5,-6.5 -0.649,-2.481 -1.649,-2.814 -3,-1 4.551,4.421 5.051,9.254 1.5,14.5 -1.167,-1.667 -2.333,-3.333 -3.5,-5 -0.834,4.686 -0.501,9.352 1,14 2.44,1.609 3.607,3.943 3.5,7 3.176,1.011 5.009,3.178 5.5,6.5 -0.405,0.945 -1.072,1.612 -2,2 1.655,1.444 2.322,3.278 2,5.5 -2.679,-0.173 -5.013,-1.173 -7,-3 -3.223,-5.167 -6.89,-9.834 -11,-14 0.012,1.912 -0.321,3.912 -1,6 1.667,1 3,2.333 4,4 -0.333,1 -1,1.667 -2,2 -0.716,-1.982 -1.883,-3.649 -3.5,-5 -0.483,0.948 -0.649,1.948 -0.5,3 -1,0 -2,0 -3,0 0,-3 0,-6 0,-9 -2.237,-0.949 -4.571,-1.616 -7,-2 0,-2 0,-4 0,-6 -2.214,-0.209 -3.881,0.624 -5,2.5 -1.427,3.152 -1.76,6.319 -1,9.5 -2.218,0.557 -4.551,0.557 -7,0 -0.416,2.906 -1.082,5.739 -2,8.5 0.288,2.187 0.622,4.354 1,6.5 -1.788,-0.285 -3.455,0.048 -5,1 2.904,1.555 5.57,3.555 8,6 -0.667,0.333 -1.333,0.667 -2,1 -2.769,-0.858 -5.435,-1.858 -8,-3 -0.236,-2.473 -1.569,-4.14 -4,-5 -0.929,-1.189 -1.262,-2.522 -1,-4 -1.788,-0.285 -3.455,0.048 -5,1 -1.315,1.816 -2.815,3.483 -4.5,5 -0.684,1.284 -0.517,2.451 0.5,3.5 -1.5,0.833 -2.667,2 -3.5,3.5 0.379,1.575 0.212,3.075 -0.5,4.5 -1.1,0.432 -1.767,-0.068 -2,-1.5 -0.967,-2.262 -1.634,-4.595 -2,-7 -1.322,-0.17 -2.489,0.163 -3.5,1 -1.202,2.177 -1.702,4.511 -1.5,7 -1,0 -2,0 -3,0 0,1 0,2 0,3 -1,0 -2,0 -3,0 -0.003,-3.175 -1.003,-6.008 -3,-8.5 -1.547,-0.333 -2.88,0.167 -4,1.5 -1.502,-2.327 -3.335,-4.327 -5.5,-6 -1.221,0.772 -2.221,1.772 -3,3 -1.067,-0.691 -2.234,-1.191 -3.5,-1.5 -1.27,-4.83 -3.104,-9.33 -5.5,-13.5 -1.667,-2.667 -3.333,-2.667 -5,0 -1.333,5.135 -2.833,9.468 -4.5,13 -1,0 -2,0 -3,0 -0.515,-10.268 -2.849,-10.601 -7,-1 -0.864,-4.287 -2.364,-8.287 -4.5,-12 -2.016,1.455 -2.849,3.455 -2.5,6 -1,0 -2,0 -3,0 0.379,4.076 -0.621,7.743 -3,11 0.209,0.586 0.543,1.086 1,1.5 -0.916,0.278 -1.582,0.778 -2,1.5 -1.373,0.157 -2.707,-0.01 -4,-0.5 2.192,-1.359 3.859,-3.192 5,-5.5 -1.853,-1.26 -3.686,-1.26 -5.5,0 -1.203,-3.61 -2.203,-7.276 -3,-11 -1.756,1.485 -2.923,1.152 -3.5,-1 0,-0.667 0,-1.333 0,-2 0.4,-1.877 1.4,-3.377 3,-4.5 -0.167,-0.5 -0.333,-1 -0.5,-1.5 -1.987,-0.718 -3.821,-1.718 -5.5,-3 -1.022,0.355 -1.689,1.022 -2,2 -0.333,0 -0.667,0 -1,0 0.178,-1.195 0.511,-2.362 1,-3.5 -3.176,-4.289 -2.51,-7.789 2,-10.5 -1.789,-1.533 -3.789,-2.533 -6,-3 -0.256,-3.098 -0.922,-6.098 -2,-9 -1.011,-2.73 -2.678,-3.397 -5,-2 0.163,-2.357 -0.003,-4.69 -0.5,-7 -0.234,3.814 -1.068,7.481 -2.5,11 -1.759,1.254 -3.259,0.921 -4.5,-1 0.663,3.018 0.496,6.018 -0.5,9 0.528,1.347 0.695,2.681 0.5,4 -1.011,-0.837 -2.178,-1.17 -3.5,-1 0.672,3.144 1.672,6.144 3,9 -1.56,-0.019 -3.06,-0.352 -4.5,-1 -0.945,0.405 -1.612,1.072 -2,2 -2.028,-9.178 -3.528,-8.845 -4.5,1 -1.929,-0.88 -3.7626,-1.88 -5.5,-3 -0.8732,0.235 -1.7065,0.569 -2.5,1 -0.9891,-2.938 -1.6558,-5.938 -2,-9 -3.0641,0.356 -5.7307,-0.477 -8,-2.5 -0.8802,-1.356 -1.2135,-2.856 -1,-4.5 2.3333,0 4.6667,0 7,0 0.1495,-1.052 -0.0172,-2.052 -0.5,-3 -4.3756,-1.73 -4.5422,-3.73 -0.5,-6 -4.1815,-1.006 -4.8482,-3.006 -2,-6 -1.0471,-1.556 -1.7137,-3.223 -2,-5 -1.8464,0.278 -3.1798,-0.389 -4,-2 2.4574,-3.622 2.4574,-6.955 0,-10 0.672,-0.767 1.5053,-1.434 2.5,-2 3.8166,2.63 5.8166,6.297 6,11 0.6667,-0.667 1.3333,-1.333 2,-2 1.7033,-9.069 3.0367,-8.735 4,1 1.4936,1.247 2.9936,1.247 4.5,0 -0.825,-0.886 -1.825,-1.219 -3,-1 -0.3134,-2.747 0.02,-5.414 1,-8 1.493,-3.011 2.826,-6.178 4,-9.5 -1.568,-2.12 -1.068,-3.62 1.5,-4.5 0.11,-4.455 1.444,-8.455 4,-12 0.314,2.369 1.148,4.536 2.5,6.5 -0.208,3.251 -0.208,6.418 0,9.5 1.266,0.862 2.599,1.529 4,2 z"
       id="path34" />
  </g>
  <g
     id="g35"
     style="stroke:none;stroke-width:0;stroke-dasharray:none;stroke-opacity:1">
    <path
       style="opacity:1;stroke:none;stroke-width:0;stroke-dasharray:none;stroke-opacity:1"
       fill="#5e9f7b"
       d="m 24.5,176.5 c 0.2275,4.855 0.7275,9.855 1.5,15 2.8563,1.759 3.023,3.926 0.5,6.5 1.7908,2.843 3.1242,6.01 4,9.5 0.586,-0.209 1.086,-0.543 1.5,-1 0.0259,-3.608 0.8593,-6.942 2.5,-10 2.0616,1.86 3.3949,4.194 4,7 1.406,1.451 2.906,2.784 4.5,4 0.413,-2.732 1.0797,-5.399 2,-8 0.1168,3.129 1.6168,4.295 4.5,3.5 -1.0742,-0.739 -1.7409,-1.739 -2,-3 0.6667,-2.333 1.3333,-4.667 2,-7 -1.6534,-2.411 -0.9867,-3.578 2,-3.5 0.5181,-3.387 1.3514,-6.721 2.5,-10 1.0793,-1.894 2.4126,-2.227 4,-1 2.4213,8.309 4.9213,16.642 7.5,25 -0.6667,0.667 -1.3333,1.333 -2,2 1.5116,0.749 2.5116,1.916 3,3.5 0.1437,2.441 0.1437,4.941 0,7.5 1.6924,1.859 3.1924,3.859 4.5,6 0.4828,-0.948 0.6495,-1.948 0.5,-3 2.2087,2.43 2.2087,5.097 0,8 0.6272,0.917 0.9606,1.917 1,3 -1.4187,0.951 -3.0853,1.284 -5,1 0,2.667 0,5.333 0,8 -0.7341,1.208 -1.0674,2.541 -1,4 -1.3333,0 -2.6667,0 -4,0 0.427,-3.288 -0.2397,-6.288 -2,-9 1.2113,-1.374 2.2113,-2.874 3,-4.5 -1.7554,-2.391 -2.0888,-4.891 -1,-7.5 -1.368,-1.094 -2.5347,-0.76 -3.5,1 -0.1667,-0.5 -0.3333,-1 -0.5,-1.5 2.6669,-3.496 4.6669,-7.33 6,-11.5 -0.3333,-0.333 -0.6667,-0.667 -1,-1 -1.3333,2 -2.6667,4 -4,6 -0.9922,-4.283 -1.3256,-8.616 -1,-13 1.3137,-4.848 1.3137,-9.848 0,-15 -0.6067,0.124 -0.94,0.457 -1,1 -0.8798,9.313 -1.7131,18.646 -2.5,28 -0.9653,-1.76 -2.132,-2.094 -3.5,-1 1.2883,2.534 1.2883,5.034 0,7.5 0.718,1.987 1.718,3.821 3,5.5 -1.1016,0.676 -2.1016,1.342 -3,2 -0.3746,3.942 -1.3746,7.609 -3,11 -2.3824,-4.382 -5.7157,-7.716 -10,-10 -0.5483,-2.584 -2.215,-3.584 -5,-3 0.0861,-2.177 0.7528,-4.177 2,-6 -0.825,-0.886 -1.825,-1.219 -3,-1 0,-1 0,-2 0,-3 -2.6667,0 -5.3333,0 -8,0 0,3 0,6 0,9 -3.5794,0.266 -3.9127,1.599 -1,4 -1.3084,1.126 -2.6417,1.126 -4,0 -0.4664,-4.711 -1.2998,-9.711 -2.5,-15 -1.3204,-0.299 -2.8204,-0.466 -4.5,-0.5 -3.77778,-1.64 -3.77778,-2.807 0,-3.5 0.2774,-4.84 -1.3893,-8.84 -5,-12 3.2915,-2.61 5.2915,-5.944 6,-10 -1,0 -2,0 -3,0 0.709,-0.904 1.709,-1.237 3,-1 0.4258,-1.639 0.4258,-2.972 0,-4 1.3333,-1.333 1.3333,-2.667 0,-4 2.3398,-1.072 2.6731,-2.739 1,-5 2.8756,-3.084 4.7089,-6.751 5.5,-11 0.4517,4.219 1.9517,7.886 4.5,11 z"
       id="path35" />
  </g>
  <g
     id="g36"
     style="stroke:none;stroke-width:0;stroke-dasharray:none;stroke-opacity:1">
    <path
       style="opacity:1;stroke:none;stroke-width:0;stroke-dasharray:none;stroke-opacity:1"
       fill="#275841"
       d="m 57.5,188.5 c 0.06,-0.543 0.3933,-0.876 1,-1 1.3137,5.152 1.3137,10.152 0,15 0.3195,-4.863 -0.0139,-9.53 -1,-14 z"
       id="path36" />
  </g>
  <path
     d="m 12.5,154.5 c -1.131055,1.25097 -2.464467,2.25102 -4,3 -1.1720409,-0.41899 -2.1721249,-1.08502 -3,-2 -0.9655294,1.89589 -1.2988874,3.89611 -1,6 h -4 c 0.26779778,1.59897 -0.0655642,2.93202 -1,4 v 3 321 h 735 v -300 c -0.85497,2.77778 -2.18818,5.4452 -4,8 -3.35175,-1.40493 -3.51776,-2.73907 -0.5,-4 -0.35199,-4.04173 1.14825,-7.04219 4.5,-9 v -10 c -0.89097,0.60998 -1.89105,0.943 -3,1 -0.248,-4.31094 -0.581,-8.64406 -1,-13 -1.208,3.62194 -2.208,7.28906 -3,11 h -3 c 0.051,-3.04094 1.05106,-5.70806 3,-8 -0.233,-1.432 -0.9,-1.932 -2,-1.5 -0.876,1.586 -1.876,3.086 -3,4.5 -0.989,-3.60694 -1.323,-7.27406 -1,-11 0.219,-1.175 -0.114,-2.175 -1,-3 -0.798,0.457 -1.131,1.124 -1,2 0.32,3.39794 -0.013,6.73206 -1,10 -1.109,-1.09 -2.109,-1.09 -3,0 1.81594,1.78994 3.149,3.79006 4,6 v 3 c 0.219,1.175 -0.114,2.175 -1,3 -1.525,-3.06296 -3.52504,-5.73004 -6,-8 -1.083,0.865 -1.249,1.865 -0.5,3 1.75296,2.50496 3.253,5.17104 4.5,8 -1.595,0.934 -3.26104,0.934 -5,0 1.334,4.24196 2.667,8.57504 4,13 -0.333,1 -0.667,2 -1,3 -1.656,-1.95996 -3.32304,-3.96004 -5,-6 -1.219,1.146 -2.552,2.146 -4,3 2.42196,2.43996 2.42196,4.77404 0,7 -1.019,-1.187 -2.186,-2.187 -3.5,-3 -0.307,3.54696 -1.14,6.88004 -2.5,10 h 4 c 0.149,1.05195 -0.017,2.05203 -0.5,3 -1.77582,-1.03595 -3.60918,-1.03595 -5.5,0 -0.993,-2.29898 -2.65902,-3.966 -5,-5 -1.261,2.06198 -0.76098,3.728 1.5,5 0.496,1.535 0.33,3.035 -0.5,4.5 0.556,1.011 1.222,1.844 2,2.5 v 6 c -1.29093,0.237 -2.29102,-0.096 -3,-1 -0.762,-1.76197 -2.09603,-2.762 -4,-3 0,0.667 -0.333,1 -1,1 0.065,0.438 -0.101,0.772 -0.5,1 -2.95097,-1.227 -5.78403,-2.56 -8.5,-4 0.592,2.62697 0.925,5.29403 1,8 h 3 v 4 c 3.08776,-0.30299 4.75401,1.03022 5,4 -1.15898,0.95599 -2.32602,1.95601 -3.5,3 -1.85992,-1.70092 -4.02709,-2.701 -6.5,-3 0.061,2.09191 1.06109,3.59201 3,4.5 -3.74789,-0.038 -6.91509,-1.5381 -9.5,-4.5 -0.49999,0.333 -1.00001,0.667 -1.5,1 1.92691,2.7419 3.59402,5.5751 5,8.5 -0.344,1.36498 -1.01101,2.53201 -2,3.5 1.92391,1.50898 3.09101,3.50909 3.5,6 2.55591,0.71899 3.723,2.38609 3.5,5 1.98391,0.117 3.65002,-0.55002 5,-2 0.55199,1.50298 0.55199,3.16908 0,5 3.83889,0.112 3.83889,0.77902 0,2 -0.92899,1.18898 -1.262,2.52202 -1,4 1.84592,-0.278 3.18001,0.38902 4,2 -3.67089,2.34291 -6.67109,5.34311 -9,9 -1.35398,-2.56691 -1.01991,-4.90109 1,-7 -2.7279,-1.75392 -5.5611,-2.08799 -8.5,-1 -1.26098,-0.259 -2.26101,-0.92601 -3,-2 0.68999,-2.15591 0.52299,-4.32309 -0.5,-6.5 0.52199,-0.94999 1.18901,-1.78401 2,-2.5 -2.61491,-1.26198 -5.2821,-2.42801 -8,-3.5 -1.07399,-0.73899 -1.741,-1.73902 -2,-3 0.78999,-3.56089 2.45709,-6.56109 5,-9 -1.47298,-0.70999 -2.14,-1.87602 -2,-3.5 h -3 c 0,-0.66698 -0.33302,-1 -1,-1 0.277,-2.94795 -0.056,-5.78105 -1,-8.5 -0.333,-0.167 -0.667,-0.333 -1,-0.5 -0.512,2.35095 -1.512,4.351 -3,6 -0.993,-4.61995 -1.327,-9.28605 -1,-14 -1.619,3.04795 -2.619,6.38105 -3,10 -1.49,1.479 -3.15705,2.312 -5,2.5 -0.643,4.11895 0.024,8.11905 2,12 -0.659,2.46195 -0.993,4.96205 -1,7.5 h -6 c -0.111,0.617 -0.444,1.117 -1,1.5 1.141,2.78295 2.97505,4.95 5.5,6.5 1.092,2.54395 1.759,5.21105 2,8 0.708,0.881 1.542,1.547 2.5,2 0.131,0.87597 -0.20203,1.54302 -1,2 -4.32871,-4.43571 -6.32899,-3.43552 -6,3 -2.4238,-0.30799 -4.7572,0.026 -7,1 1.99581,3.56074 2.66298,7.22827 2,11 -1.15199,1.12499 -2.15201,1.12499 -3,0 -2.49092,0.329 -4.65708,1.32908 -6.5,3 -0.502,-3.01291 -1.002,-6.01309 -1.5,-9 0.285,-1.78792 -0.048,-3.45501 -1,-5 -0.98699,3.26791 -1.32,6.60209 -1,10 v 5 c -1.59899,-0.268 -2.93201,0.066 -4,1 2.10292,1.51799 2.26992,3.18508 0.5,5 -0.497,2.64592 -0.664,5.31308 -0.5,8 -1.78793,-0.285 -3.45501,0.048 -5,1 0.764,4.46692 1.431,8.96708 2,13.5 -1.63299,2.56293 -2.96601,5.39708 -4,8.5 -2.99393,1.56599 -3.994,0.89893 -3,-2 -1.54499,-0.952 -3.21207,-1.285 -5,-1 v -8 h -1 -5 c -1.01099,-1.90193 -1.178,-3.90207 -0.5,-6 5.72984,-2.00793 5.89584,-4.34108 0.5,-7 0.99999,-1.33299 2.00001,-2.66701 3,-4 -1.64899,-0.648 -2.98201,-1.64801 -4,-3 0.82499,-0.88599 1.82501,-1.219 3,-1 -1.01999,-3.85291 -2.68708,-7.35308 -5,-10.5 0.78599,-3.45792 1.12,-6.95808 1,-10.5 -1.42999,0.079 -2.76401,-0.25401 -4,-1 -0.641,-1.49299 -1.64101,-2.493 -3,-3 -1.08299,-0.039 -2.08301,-0.373 -3,-1 -0.79799,0.457 -1.131,1.12401 -1,2 2.32992,2.32892 2.32992,4.66208 0,7 0.532,2.24092 1.86507,3.74101 4,4.5 -1.40499,1.26899 -3.07107,1.769 -5,1.5 v 3 c 1.17499,-0.219 2.17501,0.11401 3,1 -0.91499,0.82799 -1.581,1.82801 -2,3 0.667,1.66693 1.333,3.33307 2,5 -0.76899,2.61492 -1.103,5.28108 -1,8 -1.32199,-0.17 -2.48901,0.16301 -3.5,1 -0.03,5.81484 -0.86401,11.48116 -2.5,17 0.26,1.68693 0.92701,3.18701 2,4.5 -3.65191,0.499 -7.31809,0.665 -11,0.5 -0.16,1.69893 0.006,3.36601 0.5,5 3.38392,3.22392 6.88409,6.22408 10.5,9 -0.81299,1.31399 -1.81301,2.48101 -3,3.5 -3.98591,1.65899 -7.65308,3.82508 -11,6.5 0.17206,0.21938 0.30184,0.37147 0.44141,0.56641 -0.67133,-0.51758 -1.26933,-1.11566 -0.9336,-2.54883 0.67099,-0.75198 0.64203,-1.28956 1.49219,-2.01758 2.85478,-2.66679 2.18772,-4.33402 -2,-5 0.209,-0.58598 0.54302,-1.08602 1,-1.5 -1.52493,-1.00895 -3.19218,-1.509 -5,-1.5 -1.84082,-6.53552 -3.17403,-13.20349 -4,-20 h -4 v 5 c -1.91393,3.18393 -2.58,6.85107 -2,11 h -3 c 0.086,2.17693 0.753,4.17707 2,6 -1.189,0.929 -2.522,1.262 -4,1 v 5 h -4 c 0.233,1.562 0.9,2.895 2,4 -0.70898,0.90397 -1.70907,1.237 -3,1 -1.14898,0.291 -1.816,1.12402 -2,2.5 1.48397,2.5289 1.1499,4.69609 -1,6.5 2.4349,3.29488 5.76813,5.12901 10,5.5 0.46599,1.29898 0.46599,2.79909 0,4.5 -5.01079,0.166 -10.01114,-10e-4 -15,-0.5 -0.60199,-2.03591 -1.60202,-3.87003 -3,-5.5 1.20998,-2.3169 0.7099,-4.31709 -1.5,-6 -0.30099,-3.47988 -1.13502,-6.81311 -2.5,-10 -2.0649,1.15398 -3.39801,2.8201 -4,5 0.31299,2.74689 -0.02,5.4141 -1,8 -0.76499,1.11198 -1.76502,1.779 -3,2 -0.124,2.0819 -1.12409,3.58202 -3,4.5 2.69389,2.65289 3.52698,5.82012 2.5,9.5 -1.91391,-2.75189 -3.41402,-5.75212 -4.5,-9 -1.54497,-0.95198 -3.21209,-1.285 -5,-1 0.31299,3.07189 -0.35403,5.9051 -2,8.5 0.79599,1.09198 1.46301,2.25902 2,3.5 -2.1229,2.2449 -3.123,4.91211 -3,8 -1.99991,0.33299 -4.00009,0.66701 -6,1 -0.149,-1.05198 0.017,-2.05202 0.5,-3 1.48697,-0.65499 2.65301,-1.65502 3.5,-3 -2.00991,-1.67091 -4.34311,-2.33799 -7,-2 0.286,-1.77691 0.95302,-3.44403 2,-5 -0.41899,-1.17198 -1.08502,-2.17201 -2,-3 0.90698,-2.92089 1.24,-5.92111 1,-9 h -3 c -0.40099,-5.45979 -1.40103,-10.79321 -3,-16 -1.72291,4.06887 -3.7231,8.23613 -6,12.5 0.77499,2.2699 1.108,4.4371 1,6.5 -1.49497,-0.022 -3.16209,0.31101 -5,1 1.26998,3.98387 1.26998,7.98413 0,12 -3.72288,1.36498 -3.72288,3.03209 0,5 0.92898,1.18898 1.262,2.52203 1,4 h -5 c -0.111,0.61699 -0.44401,1.11701 -1,1.5 3.25388,3.61088 5.25401,7.77714 6,12.5 h -8 c 0.117,-1.98391 -0.55002,-3.65002 -2,-5 0.98898,-0.96798 1.65601,-2.13502 2,-3.5 -1.69091,-3.94687 -2.69101,-8.11413 -3,-12.5 -1.32198,-0.17 -2.48902,0.16301 -3.5,1 -0.58599,4.03287 -1.75309,7.86612 -3.5,11.5 1.64697,2.1959 1.3129,4.02903 -1,5.5 0.68799,1.35498 1.68802,2.35501 3,3 v 1 c -1.99192,-0.172 -3.65801,0.49502 -5,2 -0.333,-0.66699 -0.667,-1.33301 -1,-2 1.65598,-4.86689 0.98991,-9.36711 -2,-13.5 0.243,-0.90199 0.577,-1.73501 1,-2.5 -0.70899,-0.90399 -1.70901,-1.237 -3,-1 -1.54798,-5.14682 -2.548,-10.48018 -3,-16 -2.49291,-0.171 -4.32601,0.82908 -5.5,3 -1.46198,5.26082 -2.62801,10.59418 -3.5,16 h -2 c -0.39999,-3.84686 -2.40014,-6.18002 -6,-7 0.23999,3.93186 -1.42714,6.7661 -5,8.5 -1.13498,0.74898 -2.13502,0.58298 -3,-0.5 1.27797,-2.22189 2.27802,-4.55611 3,-7 -1.25397,-1.8339 -1.921,-3.83411 -2,-6 h -4 v -4 h -3 c -1.07898,-4.37385 -2.41203,-8.70715 -4,-13 -2.47289,-0.41199 -3.806,0.58811 -4,3 -0.93398,1.06798 -1.26799,2.40103 -1,4 -0.61699,0.111 -1.11701,0.44401 -1.5,1 -0.182,2.72588 -0.68202,5.39311 -1.5,8 -6.27475,-4.62384 -7.60886,-3.28973 -4,4 -1.25397,1.8229 -2.25402,3.82311 -3,6 1.15498,2.51089 1.822,5.17812 2,8 -1.7619,-0.143 -3.42903,0.19102 -5,1 0.31399,-3.76086 -0.5201,-7.42814 -2.5,-11 -1.01098,-0.83698 -2.17803,-1.17 -3.5,-1 -0.18,4.73784 -1.1801,9.23815 -3,13.5 1.53497,2.60889 1.20189,4.7751 -1,6.5 0.157,1.37293 -0.01,2.70707 -0.5,4 -2.4288,-0.52898 -4.26207,-1.86319 -5.5,-4 5.62055,-3.07676 5.28753,-5.24407 -1,-6.5 2.09381,-1.25493 3.094,-3.0882 3,-5.5 0.031,-3.62173 -1.63625,-5.95505 -5,-7 -0.111,-4.55873 -1.11117,-8.89226 -3,-13 -1.90983,2.41082 -3.24403,5.0772 -4,8 -0.94097,1.96583 -1.94105,3.96617 -3,6 1.33294,2.33282 1.33294,4.66718 0,7 3.45777,4.12274 2.4576,6.123 -3,6 0.85997,2.31582 1.36,4.64918 1.5,7 -6.65356,1.85783 -7.81974,0.1906 -3.5,-5 -1.12795,-0.76197 -2.29506,-1.42902 -3.5,-2 -1.51594,-6.25057 -2.349,-12.58543 -2.5,-19 -1.42994,-0.079 -2.76406,0.25403 -4,1 -1.39094,2.38982 -3.39118,4.05703 -6,5 -1.11895,-3.09577 -0.78583,-6.0962 1,-9 -1.18895,-0.92897 -2.52206,-1.26199 -4,-1 0.165,-3.68176 -10e-4,-7.34824 -0.5,-11 l -1,1 c -0.219,-1.43794 -0.71903,-2.77106 -1.5,-4 -0.92497,1.14095 -1.75903,1.14095 -2.5,0 -0.49399,-1.63394 -0.66,-3.30117 -0.5,-5 h -3 c -1.17895,3.45077 -2.51206,6.95123 -4,10.5 0.235,0.87297 0.56901,1.70703 1,2.5 -1.54494,0.95197 -3.21217,1.28499 -5,1 -0.195,3.70876 -1.19517,7.20923 -3,10.5 0.52899,1.55894 1.19603,3.05906 2,4.5 -4.19674,1.39694 -6.197,-0.27027 -6,-5 h -3 c -0.43299,-2.66581 -0.93302,-5.33219 -1.5,-8 -2.35882,-2.53782 -3.85902,-1.87076 -4.5,2 -1.23894,0.44199 -2.23903,1.10903 -3,2 v 7 h -3 c 0.174,2.36082 0.50701,4.69418 1,7 h -4 c 0.27799,1.84583 -0.38906,3.18003 -2,4 -0.13,-2.9878 -0.46301,-5.98822 -1,-9 -1.23494,-2.8298 -2.23503,-5.83023 -3,-9 h -3 c -1.62694,4.51174 -2.62701,9.17927 -3,14 h -5 c 0.26199,-1.47794 -0.071,-2.81105 -1,-4 -1.33294,-0.99997 -2.66706,-2.00003 -4,-3 2.26582,-0.81397 4.60018,-1.314 7,-1.5 2.02483,-1.19394 2.35894,-2.69417 1,-4.5 -3.85676,-0.132 -6.52406,-1.96623 -8,-5.5 1.37194,-2.51482 2.37202,-5.1822 3,-8 -0.94797,-0.48299 -1.94805,-0.649 -3,-0.5 0.91197,-3.53177 1.91205,-7.19824 3,-11 -1.50494,-1.34194 -2.172,-3.00817 -2,-5 h -5 c -0.36299,-6.3086 -1.69717,-12.30939 -4,-18 h -3 c -1.39994,5.49761 -2.40001,11.16439 -3,17 -1.37094,2.18083 -2.37101,4.51417 -3,7 h -4 c -0.66699,5.33263 -1.33301,5.33263 -2,0 -1.32195,-0.17 -2.48904,0.16302 -3.5,1 -2.97782,-0.48099 -4.81101,-2.14718 -5.5,-5 0.75997,-1.39293 1.42602,-2.89307 2,-4.5 -0.33299,-0.83297 -0.66701,-1.66703 -1,-2.5 -1.67283,1.58593 -3.67319,2.25299 -6,2 0.50198,-6.00456 0.668,-12.00544 0.5,-18 -0.83297,0.99997 -1.66703,2.00003 -2.5,3 -0.41999,-1.85283 -0.75301,-3.68717 -1,-5.5 -1.36493,0.143 -2.69806,0.64303 -4,1.5 -0.60499,-2.62681 -1.10501,-5.29319 -1.5,-8 -1.01095,-0.83697 -2.17806,-1.17 -3.5,-1 -2.17282,5.44361 -3.84005,11.1114 -5,17 1.11295,1.44594 1.27997,3.11316 0.5,5 -1.78484,-0.73997 -3.61816,-1.40701 -5.5,-2 -1.04895,2.57982 -1.71601,5.24619 -2,8 h -3 c -0.117,1.98384 0.55006,3.65006 2,5 -0.81097,0.71597 -1.47801,1.55003 -2,2.5 1.56194,2.79181 1.89497,5.62519 1,8.5 -0.58599,-0.209 -1.08601,-0.54301 -1.5,-1 -2.40982,-11.23929 -4.41006,-22.57471 -6,-34 -1.44394,-2.55482 -2.61103,-5.22119 -3.5,-8 -0.58599,0.209 -1.08601,0.54301 -1.5,1 -1.09495,5.27961 -1.595,10.61339 -1.5,16 -0.60998,0.89097 -0.943,1.89105 -1,3 -2.21881,1.56493 -2.55193,3.56519 -1,6 -2.30881,2.28481 -4.47618,2.28481 -6.5,0 -1.70583,2.22681 -3.54018,4.39418 -5.5,6.5 -0.94797,0.48298 -1.94805,0.649 -3,0.5 -0.039,-3.30975 1.29422,-5.97619 4,-8 -3.30275,-1.63893 -5.97019,-3.97224 -8,-7 1.54093,-1.70382 2.87505,-3.53719 4,-5.5 -1.12895,-2.3048 -1.12895,-4.6382 0,-7 -0.085,-1.10695 -0.41902,-2.10703 -1,-3 -2.07681,-0.192 -4.07718,-0.69203 -6,-1.5 1.75082,-1.98981 2.75101,-4.32321 3,-7 -0.219,-2.4148 -1.5522,-3.41498 -4,-3 -0.203,-2.13781 -1.20318,-3.80507 -3,-5 -0.82497,-0.88597 -1.82506,-1.219 -3,-1 v -3 h -2 c 0.77498,-5.89464 -1.55835,-8.22895 -7,-7 v 6 c -3.98479,-0.06 -5.65199,1.94022 -5,6 -1.64193,1.58093 -3.6422,2.24699 -6,2 -0.31299,2.74678 0.02,5.4142 1,8 6.9735,3.88373 6.63946,5.21693 -1,4 v 4 c -1.69882,-0.16 -3.36607,0.006 -5,0.5 -1.08495,2.1718 -2.41907,4.17218 -4,6 -3.59473,0.122 -5.26099,1.95626 -5,5.5 h -3 c 0.26199,-3.42075 -1.07222,-4.42093 -4,-3 -0.33299,-0.99997 -0.66701,-2.00003 -1,-3 1.01295,-2.6158 1.84702,-5.28222 2.5,-8 4.09272,-1.69182 7.2602,-4.52627 9.5,-8.5 0.94797,-0.48298 1.94805,-0.649 3,-0.5 v -6 c -1.69882,-0.16 -3.36607,0.006 -5,0.5 -2.1828,2.3498 -4.5162,4.51719 -7,6.5 -0.33299,-0.49998 -0.66701,-1.00002 -1,-1.5 1.70282,-1.36993 3.03603,-3.03619 4,-5 l -4.5,-4.5 c -0.94997,0.52198 -1.78403,1.18903 -2.5,2 -0.58598,-0.209 -1.08602,-0.54302 -1.5,-1 0.074,-4.9157 2.5743,-7.91605 7.5,-9 0.55698,-1.83182 1.55707,-3.16503 3,-4 0.33299,-0.66698 0.66701,-1.33302 1,-2 0.32099,-1.54793 1.32118,-2.215 3,-2 v -6 h -6 v 3 c -3.04976,-0.57698 -5.05003,0.59022 -6,3.5 -0.94797,0.48298 -1.94805,0.649 -3,0.5 -0.206,-4.47371 0.7942,-8.64027 3,-12.5 -1.35593,-1.56693 -2.023,-3.40019 -2,-5.5 2.5318,-2.1828 4.19803,-4.85025 5,-8 v -2 c -1.38693,-1.98881 -1.05281,-3.82218 1,-5.5 -1.93581,-0.81297 -3.93619,-1.313 -6,-1.5 h -1 c 0.178,-1.19496 0.51101,-2.36203 1,-3.5 -3.17584,-4.28882 -2.50982,-7.78914 2,-10.5 -1.78888,-1.53296 -3.78913,-2.53301 -6,-3 -0.25599,-3.09784 -0.92203,-6.09814 -2,-9 -1.47796,1.46996 -2.81103,3.13712 -4,5 -0.97398,-2.24287 -1.30799,-4.57613 -1,-7 0.163,-2.35687 -0.003,-4.69013 -0.5,-7 -0.234,3.81383 -1.06804,7.48116 -2.5,11 -1.75888,1.25396 -3.25904,0.92088 -4.5,-1 0.66299,3.01785 0.49598,6.01814 -0.5,9 1.77988,1.48996 2.44599,3.49013 2,6 -0.96797,2.10681 -1.30199,4.4412 -1,7 h -4 v 6 c 1.87082,0.35899 3.37105,1.35907 4.5,3 0.056,3.27975 0.88907,6.28022 2.5,9 -2.2428,0.97397 -4.5762,1.30799 -7,1 v 3 c -2.86786,0.51699 -5.53413,0.85 -8,1 2.54787,3.37685 3.54799,7.04316 3,11 -1.89588,0.96598 -3.89612,1.29899 -6,1 1.52997,4.72282 3.86315,9.05716 7,13 0.88598,-0.82498 1.219,-1.82502 1,-3 1.32197,-0.17 2.48902,0.16302 3.5,1 1.66197,3.94584 1.99598,7.94617 1,12 0.67099,0.75198 1.50402,1.086 2.5,1 v 3 c -4.9288,-1.32196 -9.9293,-2.32201 -15,-3 1.43096,-2.85385 2.264,-5.85417 2.5,-9 -2.39886,1.89687 -4.231865,4.23115 -5.5,7 -0.903929,-0.70898 -1.23728,-1.70907 -1,-3 0.638566,-0.59699 0.972001,-1.43003 1,-2.5 -2.394575,-9.35748 -4.061452,-18.85852 -5,-28.5 -0.828961,4.96679 -1.329014,9.96732 -1.5,15 -0.89275,-1.21096 -1.726138,-1.21096 -2.5,0 0.666665,1.33296 1.333335,2.66704 2,4 -0.745762,1.23596 -1.079198,2.57004 -1,4 h -3 c -1.763109,3.68581 -2.929833,7.6862 -3.5,12 -1.424927,0.71199 -2.925086,0.87899 -4.5,0.5 1.347929,5.37668 -0.819,8.87704 -6.5,10.5 -1.029846,-0.33599 -1.529899,-1.00302 -1.5,-2 0.433371,-2.88678 1.766868,-5.38719 4,-7.5 -2.012852,-0.67998 -3.346448,-2.01319 -4,-4 1.3523,-1.96381 2.185725,-4.1312 2.5,-6.5 4.862937,-3.74773 7.029956,-8.74847 6.5,-15 3.050991,-1.496 3.717595,-3.83001 2,-7 2.715992,-5.44498 3.382596,-11.11102 2,-17 -1.638195,2.93599 -2.971503,5.93601 -4,9 h -1 v -7 h -3 c 0.231084,-6.69562 1.897975,-13.03036 5,-19 -0.333281,-0.66699 -0.666719,-1.33301 -1,-2 -1.166636,1.66686 -2.333364,3.33314 -3.5,5 -0.333281,-0.66699 -0.666719,-1.33301 -1,-2 -1.308725,2.47584 -3.142235,4.47605 -5.5,6 0.848148,1.90886 1.181586,3.90914 1,6 h -3 c -0.774459,3.94379 -1.441135,3.77678 -2,-0.5 1.720503,-4.38178 3.053956,-8.88223 4,-13.5 2.538252,-2.80883 3.538366,-6.14321 3,-10 h -3 c 0.422678,2.28084 -0.244098,3.94804 -2,5 -0.73406,1.20795 -1.067399,2.54105 -1,4 h -4 c 0.426978,-3.28781 -0.239798,-6.28817 -2,-9 1.211229,-1.37395 2.211343,-2.87405 3,-4.5 -1.755302,-2.39084 -2.08874,-4.89116 -1,-7.5 -1.367922,-1.09396 -2.534756,-0.75986 -3.5,1 -0.166686,-0.49999 -0.333314,-1.00001 -0.5,-1.5 2.666748,-3.49581 4.666976,-7.33022 6,-11.5 -0.333281,-0.33299 -0.666719,-0.66701 -1,-1 -1.333224,1.99986 -2.666776,4.00014 -4,6 -0.992143,-4.28278 -1.325581,-8.61622 -1,-13 0.319481,-4.86277 -0.01393,-9.53022 -1,-14 -0.879748,9.31244 -1.713143,18.64656 -2.5,28 -0.965244,-1.75986 -2.132078,-2.09396 -3.5,-1 1.288226,2.53384 1.288226,5.03416 0,7.5 0.71796,1.98686 1.718074,3.82114 3,5.5 -1.101539,0.67599 -2.101653,1.34201 -3,2 -0.0198,1.64295 0.646876,2.97604 2,4 -2.812643,3.61379 -2.479306,6.94818 1,10 -0.333281,0.33299 -0.666719,0.66701 -1,1 -1.206929,-2.04086 -2.873819,-3.37401 -5,-4 -2.382265,-4.38178 -5.715945,-7.71616 -10,-10 v 3 c 1.570808,2.13486 2.90436,4.46816 4,7 0.979243,1.26495 1.979357,2.59905 3,4 -1.49342,0.64099 -2.493534,1.64105 -3,3 1.207829,0.73397 2.54138,1.067 4,1 v 4 c 1.249427,1.27795 2.749598,2.27803 4.5,3 0.489977,1.29295 0.656695,2.62705 0.5,4 -1.47772,-0.26199 -2.811271,0.071 -4,1 0.123595,0.60699 0.456934,0.94 1,1 1.445697,2.2818 1.779146,4.6152 1,7 -0.833244,-0.99997 -1.666756,-2.00003 -2.5,-3 -0.333275,0.66698 -0.666725,1.33302 -1,2 -0.833244,-0.99997 -1.666756,-2.00003 -2.5,-3 -0.333275,0.33299 -0.666725,0.66701 -1,1 2.386525,2.5938 2.386525,5.0942 0,7.5 0.929428,1.07695 1.596227,2.24407 2,3.5 h -5 c -0.457777,-4.03779 -1.124552,-8.03821 -2,-12 -1.333224,-0.66699 -1.333224,-1.33301 0,-2 -0.638264,-1.95986 -0.638264,-3.79314 0,-5.5 -0.445778,-0.34799 -0.931922,-0.52952 -1.458984,-0.54297 -0.175694,-0.004 -0.356305,0.0102 -0.541016,0.043 h -2 c -5.644982,0.88697 -11.312419,1.05398 -17,0.5 -0.880133,-1.35593 -1.213481,-2.85607 -1,-4.5 1.051924,0.149 2.052072,-0.017 3,-0.5 3.968805,-5.03356 3.635457,-9.8673 -1,-14.5 1.111821,-0.76497 1.77862,-1.76507 2,-3 v -4 c -0.46637,-4.7107 -1.299893,-9.71144 -2.5,-15 -1.320301,-0.29899 -2.820523,-0.466 -4.5,-0.5 -3.7775008,-1.63993 -3.7775008,-2.80702 0,-3.5 0.277378,-4.8397 -1.389569,-8.84025 -5,-12 3.291256,-2.6098 5.291552,-5.94428 6,-10 h -3 c -1.0860893,-0.12 -1.7528578,-0.78707 -2,-2 0.5727578,-2.5848 2.239702,-3.58498 5,-3 1.333201,-1.33293 1.333201,-2.66707 0,-4 -2.527508,-0.66598 -5.1946074,-1.33202 -8,-2 0.8201889,-1.61093 2.1537162,-2.27799 4,-2 1.944954,-2.98478 2.945102,-6.31827 3,-10 h -3 c 0.408603,-4.29784 1.742096,-8.29815 4,-12 -0.333286,-0.33299 -0.666714,-0.66701 -1,-1 z m 654,146 c 3.3029,1.48898 5.97009,3.6551 8,6.5 2.9779,0.69599 5.9781,1.196 9,1.5 0.17,1.32198 -0.16301,2.48901 -1,3.5 -3.66689,0.66699 -7.33311,0.66699 -11,0 -2.64991,-2.9059 -5.98311,-4.406 -10,-4.5 0.33299,-0.66698 0.66701,-1.33302 1,-2 2.01591,-0.98599 3.34901,-2.65309 4,-5 z m -554.0625,27.9375 c 0.68072,-0.014 1.36776,0.007 2.0625,0.0625 v 5 c -2.77885,0.221 -5.44614,-0.11202 -8,-1 v -3 c 1.91537,-0.66599 3.89542,-1.02045 5.9375,-1.0625 z M 637.5,328.5 c 0.88599,0.82499 1.219,1.82501 1,3 1.42999,0.079 2.76401,-0.25401 4,-1 1.67592,4.5899 0.01,6.58999 -5,6 0,-0.66698 -0.33302,-1 -1,-1 -2.59092,-2.56192 -2.25791,-4.89508 1,-7 z m -67.88477,27.2168 c 0.28737,0.20277 0.59075,0.3639 1.13672,0.26367 -0.25157,0.75206 -0.31331,1.35227 -0.41211,1.98242 0.30213,-1.20078 -0.14675,-1.77183 -0.72461,-2.24609 z m 0.72071,2.51953 c 0.28219,0.53815 0.14064,1.25998 -0.0312,1.79101 0.0176,0.12849 0.0347,0.25944 0.0605,0.38477 0.0165,-0.0201 0.005,-8.6e-4 0.0234,-0.0234 0.10219,0.42523 0.26718,0.72169 0.41406,1.05664 -0.13635,-0.34363 -0.36433,-0.67877 -0.4375,-1.0332 -0.41598,0.5071 -0.25257,0.20733 -0.0605,-0.38477 -0.0745,-0.54332 -0.0439,-1.16027 0.0312,-1.79101 z m 0.77734,3.94336 c 0.8068,1.35683 1.87652,1.98822 2.24219,3.04492 0.2427,0.25225 0.40855,0.46807 0.67773,0.73633 -0.207,0.0889 -0.38451,0.27739 -0.57422,0.42773 -0.01,0.0717 0.0306,0.10575 0.0156,0.18164 l 0.37695,-0.34179 c -0.2922,0.76912 -1.28051,1.71012 -2.09765,2.50976 -0.28639,0.58709 -0.6023,1.20861 -0.77149,1.66211 -0.87897,-0.0107 -0.16868,-0.74214 0.77149,-1.66211 0.45278,-0.92828 0.9832,-1.77751 1.70507,-2.34961 0.0626,-0.45974 0.0112,-0.83258 -0.10351,-1.16406 -1.03398,-1.07465 -1.7203,-2.0612 -2.24219,-3.04492 z M 539.5,380.5 c 4.42986,0.35899 6.763,2.69313 7,7 -4.15787,1.71791 -8.49114,3.05102 -13,4 v -4 c 1.76191,0.143 3.42903,-0.19101 5,-1 1.27598,-1.11398 1.27598,-2.11402 0,-3 -0.237,-1.29093 0.096,-2.29102 1,-3 z m -44.87109,25.0293 c -0.31827,1.14549 -0.83077,2.09376 -1.53907,2.84375 h -0.002 c 0.70831,-0.75 1.22249,-1.69847 1.54102,-2.84375 z"
     style="opacity:1;fill:#053520;stroke:#083322;stroke-width:0.6"
     id="path134" />
  <path
     d="m 72.5,198.5 c -0.723096,1.664 -0.389692,3.33102 1,5 -0.810996,0.716 -1.477704,1.55 -2,2.5 1.125394,1.96298 2.45871,3.79602 4,5.5 -1.66669,0.667 -3.33331,1.333 -5,2 0.824996,0.886 1.825008,1.219 3,1 -0.330798,1.82198 -0.997506,3.489 -2,5 2.208686,2.42998 2.208686,5.09702 0,8 0.627196,0.917 0.9606,1.917 1,3 -1.418692,0.951 -3.085312,1.284 -5,1 v 8 c 1.75599,-1.052 2.422698,-2.71902 2,-5 h 3 c 0.538396,3.85698 -0.461616,7.19102 -3,10 -0.946094,4.61798 -2.27941,9.11802 -4,13.5 0.558896,4.27698 1.225504,4.44398 2,0.5 h 3 c 0.181598,-2.09098 -0.151806,-4.09102 -1,-6 2.357886,-1.524 4.191208,-3.52402 5.5,-6 0.333298,0.667 0.666702,1.333 1,2 1.166692,-1.66698 2.333308,-3.33302 3.5,-5 0.333298,0.667 0.666702,1.333 1,2 -3.102182,5.96996 -4.768902,12.30404 -5,19 h 3 v 7 h 1 c 1.028494,-3.06398 2.36181,-6.06402 4,-9 1.382592,5.88896 0.715984,11.55504 -2,17 1.71759,3.16998 1.050982,5.504 -2,7 0.529996,6.25196 -1.63673,11.25202 -6.5,15 -0.314298,2.36898 -1.147608,4.53602 -2.5,6.5 0.653596,1.98698 1.987012,3.32 4,4 -2.233286,2.11298 -3.566602,4.61302 -4,7.5 -0.0299,0.997 0.470106,1.664 1.5,2 5.681266,-1.623 7.847992,-5.12304 6.5,-10.5 1.57499,0.379 3.075008,0.212 4.5,-0.5 0.570196,-4.31398 1.73681,-8.31402 3.5,-12 h 3 c -0.0792,-1.43 0.254204,-2.764 1,-4 -0.666696,-1.333 -1.333304,-2.667 -2,-4 0.773896,-1.211 1.607206,-1.211 2.5,0 0.170998,-5.03296 0.671004,-10.03302 1.5,-15 0.938594,9.64194 2.605314,19.14206 5,28.5 -0.028,1.07 -0.361404,1.903 -1,2.5 -0.237298,1.291 0.096,2.291 1,3 1.268192,-2.76898 3.10102,-5.10302 5.5,-7 -0.236,3.14598 -1.069,6.14602 -2.5,9 5.07096,0.678 10.07102,1.678 15,3 v -3 c -0.996,0.086 -1.829,-0.248 -2.5,-1 0.996,-4.05398 0.662,-8.05402 -1,-12 -1.011,-0.837 -2.178,-1.17 -3.5,-1 0.219,1.175 -0.114,2.175 -1,3 -3.13698,-3.94298 -5.47,-8.27702 -7,-13 2.10398,0.299 4.10402,-0.034 6,-1 0.548,-3.95698 -0.45202,-7.62302 -3,-11 2.46598,-0.15 5.13202,-0.483 8,-1 v -3 c 2.42399,0.308 4.75701,-0.026 7,-1 -1.611,-2.71999 -2.444,-5.72001 -2.5,-9 -1.129,-1.641 -2.62901,-2.641 -4.5,-3 v -6 h 4 c -0.302,-2.55898 0.032,-4.89302 1,-7 0.446,-2.50998 -0.22002,-4.51 -2,-6 0.528,1.347 0.695,2.681 0.5,4 -1.011,-0.837 -2.178,-1.17 -3.5,-1 0.672,3.14398 1.672,6.14402 3,9 -1.56,-0.019 -3.06,-0.352 -4.5,-1 -0.945,0.405 -1.612,1.072 -2,2 -2.02798,-9.17794 -3.528,-8.84494 -4.5,1 -1.92898,-0.88 -3.76261,-1.88 -5.5,-3 -0.873194,0.235 -1.706504,0.569 -2.5,1 -0.989094,-2.93798 -1.655802,-5.93802 -2,-9 -3.064082,0.356 -5.730714,-0.47702 -8,-2.5 -0.880194,-1.356 -1.213498,-2.856 -1,-4.5 h 7 c 0.1495,-1.052 -0.0172,-2.052 -0.5,-3 -4.375574,-1.72998 -4.542176,-3.73002 -0.5,-6 -4.181474,-1.006 -4.848182,-3.00602 -2,-6 -1.047094,-1.556 -1.713702,-3.22302 -2,-5 -1.846388,0.278 -3.179804,-0.389 -4,-2 2.457386,-3.62198 2.457386,-6.95502 0,-10 -3.37708,-1.466 -6.71042,-3.13302 -10,-5 z"
     style="opacity:1;fill:#2d6142;stroke-width:0"
     id="path133" />
  <g
     id="g40"
     style="stroke:none;stroke-width:0;stroke-dasharray:none;stroke-opacity:1">
    <path
       style="opacity:1;stroke:none;stroke-width:0;stroke-dasharray:none;stroke-opacity:1"
       fill="#295544"
       d="m 127.5,229.5 c -1.478,1.47 -2.811,3.137 -4,5 -0.974,-2.243 -1.308,-4.576 -1,-7 2.322,-1.397 3.989,-0.73 5,2 z"
       id="path40" />
  </g>
  <g
     id="g45"
     style="stroke:none;stroke-width:0;stroke-dasharray:none;stroke-opacity:1">
    <path
       style="opacity:1;stroke:none;stroke-width:0;stroke-dasharray:none;stroke-opacity:1"
       fill="#61987a"
       d="m 38.5,234.5 c 1.5709,2.135 2.9043,4.468 4,7 -1.896,0.981 -3.896,1.981 -6,3 -0.4089,-2.506 -0.7422,-5.006 -1,-7.5 0.6301,-1.31 1.6301,-2.144 3,-2.5 z"
       id="path45" />
  </g>
  <path
     d="m 24.5,218.5 v 9 c -3.579389,0.266 -3.912691,1.59901 -1,4 -1.308396,1.126 -2.641704,1.126 -4,0 v 4 c -0.221399,1.235 -0.888103,2.235 -2,3 4.635786,4.63299 4.969088,9.46602 1,14.5 -0.947997,0.483 -1.948003,0.649 -3,0.5 -0.213499,1.644 0.119803,3.144 1,4.5 5.687983,0.554 11.354617,0.387 17,-0.5 h 2 c 0.738898,-0.131 1.405602,0.036 2,0.5 -0.638298,1.70699 -0.638298,3.54001 0,5.5 1.121397,-2.15899 2.954708,-3.493 5.5,-4 2.156594,0.885 2.989899,2.55201 2.5,5 -1.991794,-0.172 -3.658504,0.495 -5,2 -0.916797,-0.627 -1.916803,-0.961 -3,-1 0.875497,3.96199 1.542201,7.96201 2,12 h 5 c -0.403799,-1.256 -1.070503,-2.423 -2,-3.5 2.386693,-2.40599 2.386693,-4.90601 0,-7.5 0.333299,-0.333 0.666701,-0.667 1,-1 0.833298,1 1.666702,2 2.5,3 0.333299,-0.667 0.666701,-1.333 1,-2 0.833298,1 1.666702,2 2.5,3 0.779198,-2.38499 0.445796,-4.71801 -1,-7 -0.543098,-0.06 -0.8764,-0.393 -1,-1 1.188796,-0.929 2.522204,-1.262 4,-1 0.1567,-1.373 -0.01,-2.707 -0.5,-4 -1.750495,-0.722 -3.250504,-1.722 -4.5,-3 0.131,0.739 -0.0357,1.406 -0.5,2 -1.682895,-2.01399 -3.682907,-3.68 -6,-5 -1.153097,1.99699 -2.653106,2.33 -4.5,1 1.665895,-3.00999 3.999309,-4.01 7,-3 0.506498,-1.359 1.506504,-2.359 3,-3 -1.020697,-1.401 -2.020703,-2.735 -3,-4 -1.895994,0.981 -3.896006,1.981 -6,3 -0.408899,-2.50599 -0.742201,-5.00601 -1,-7.5 0.630098,-1.31 1.630104,-2.144 3,-2.5 v -3 c -0.548298,-2.58399 -2.215008,-3.584 -5,-3 0.0861,-2.17699 0.752804,-4.17701 2,-6 -0.824998,-0.886 -1.825004,-1.219 -3,-1 v -3 z"
     style="opacity:1;fill:#295740;stroke-width:0"
     id="path123" />
  <g
     id="g47"
     style="stroke:none;stroke-width:0;stroke-dasharray:none;stroke-opacity:1">
    <path
       style="opacity:1;stroke:none;stroke-width:0;stroke-dasharray:none;stroke-opacity:1"
       fill="#2f5e4d"
       d="m 51.5,230.5 c -0.0198,1.643 0.6468,2.976 2,4 -2.8128,3.614 -2.4795,6.948 1,10 -0.3333,0.333 -0.6667,0.667 -1,1 -1.207,-2.041 -2.8737,-3.374 -5,-4 1.6254,-3.391 2.6254,-7.058 3,-11 z"
       id="path47" />
  </g>
  <g
     id="g49"
     style="stroke:none;stroke-width:0;stroke-dasharray:none;stroke-opacity:1">
    <path
       style="opacity:1;stroke:none;stroke-width:0;stroke-dasharray:none;stroke-opacity:1"
       fill="#5c9276"
       d="m 42.5,248.5 c 1.2079,0.734 2.5413,1.067 4,1 0,1.333 0,2.667 0,4 0.131,0.739 -0.0357,1.406 -0.5,2 -1.6829,-2.014 -3.6829,-3.68 -6,-5 -1.1531,1.997 -2.6531,2.33 -4.5,1 1.6659,-3.01 3.9993,-4.01 7,-3 z"
       id="path49" />
  </g>
  <g
     id="g53"
     style="stroke:none;stroke-width:0;stroke-dasharray:none;stroke-opacity:1">
    <path
       style="opacity:1;stroke:none;stroke-width:0;stroke-dasharray:none;stroke-opacity:1"
       fill="#2e674b"
       d="m 138.5,262.5 c -1.387,-1.989 -1.053,-3.822 1,-5.5 -1.936,-0.813 -3.936,-1.313 -6,-1.5 0.311,-0.978 0.978,-1.645 2,-2 1.679,1.282 3.513,2.282 5.5,3 0.167,0.5 0.333,1 0.5,1.5 -1.6,1.123 -2.6,2.623 -3,4.5 z"
       id="path53" />
  </g>
  <g
     id="g54"
     style="stroke:none;stroke-width:0;stroke-dasharray:none;stroke-opacity:1">
    <path
       style="opacity:1;stroke:none;stroke-width:0;stroke-dasharray:none;stroke-opacity:1"
       fill="#609978"
       d="m 37.5,265.5 c -1.3333,-0.667 -1.3333,-1.333 0,-2 1.1214,-2.159 2.9547,-3.493 5.5,-4 2.1566,0.885 2.9899,2.552 2.5,5 -1.9918,-0.172 -3.6585,0.495 -5,2 -0.9168,-0.627 -1.9168,-0.961 -3,-1 z"
       id="path54" />
  </g>
  <g
     id="g55"
     style="stroke:none;stroke-width:0;stroke-dasharray:none;stroke-opacity:1">
    <path
       style="opacity:1;stroke:none;stroke-width:0;stroke-dasharray:none;stroke-opacity:1"
       fill="#599070"
       d="m 271.5,264.5 c 1.149,0.291 1.816,1.124 2,2.5 0.112,1.662 -0.554,2.829 -2,3.5 -1.194,-2.016 -1.194,-4.016 0,-6 z"
       id="path55" />
  </g>
  <g
     id="g57"
     style="stroke:none;stroke-width:0;stroke-dasharray:none;stroke-opacity:1">
    <path
       style="opacity:1;stroke:none;stroke-width:0;stroke-dasharray:none;stroke-opacity:1"
       fill="#5f9978"
       d="m 333.5,268.5 c 2.663,1.823 5.663,2.823 9,3 0.2,3.265 -1.3,5.265 -4.5,6 -3.286,-1.98 -4.786,-4.98 -4.5,-9 z"
       id="path57" />
  </g>
  <g
     id="g59"
     style="stroke:none;stroke-width:0;stroke-dasharray:none;stroke-opacity:1">
    <path
       style="opacity:1;stroke:none;stroke-width:0;stroke-dasharray:none;stroke-opacity:1"
       fill="#65997a"
       d="m 275.5,273.5 c 1.511,1.002 3.178,1.669 5,2 0.278,1.846 -0.389,3.18 -2,4 -2.053,-1.439 -3.053,-3.439 -3,-6 z"
       id="path59" />
  </g>
  <g
     id="g61"
     style="stroke:none;stroke-width:0;stroke-dasharray:none;stroke-opacity:1">
    <path
       style="opacity:1;stroke:none;stroke-width:0;stroke-dasharray:none;stroke-opacity:1"
       fill="#2d5a41"
       d="m 30.5,269.5 c 0.9682,2.107 1.3016,4.441 1,7 1.3221,-0.17 2.4887,0.163 3.5,1 0.2868,2.391 0.7868,4.724 1.5,7 -0.3333,0.333 -0.6667,0.667 -1,1 -1.2193,-0.763 -2.2193,-1.763 -3,-3 -0.3333,0.333 -0.6667,0.667 -1,1 1.224,2.339 1.224,4.672 0,7 -1.1652,-0.991 -2.3319,-1.991 -3.5,-3 -1.1618,0.687 -2.3284,0.853 -3.5,0.5 -2.2594,-1.715 -4.4261,-3.548 -6.5,-5.5 -1.5297,-7.857 0.137,-9.191 5,-4 2.2454,-3.417 4.7454,-6.417 7.5,-9 z"
       id="path61" />
  </g>
  <g
     id="g62"
     style="stroke:none;stroke-width:0;stroke-dasharray:none;stroke-opacity:1">
    <path
       style="opacity:1;stroke:none;stroke-width:0;stroke-dasharray:none;stroke-opacity:1"
       fill="#5d9775"
       d="m 329.5,271.5 c 1,0 2,0 3,0 -0.463,2.982 -0.796,5.982 -1,9 -1,0 -2,0 -3,0 0.16,1.699 -0.006,3.366 -0.5,5 -0.333,-0.333 -0.667,-0.667 -1,-1 -1.878,1.543 -3.378,3.376 -4.5,5.5 -1.135,0.749 -2.135,0.583 -3,-0.5 5.412,-4.821 8.745,-10.821 10,-18 z"
       id="path62" />
  </g>
  <path
     d="m 303.5,190.5 c -0.666,4.84892 -1.333,9.84913 -2,15 -0.607,-0.124 -0.94,-0.457 -1,-1 0,-0.667 -0.333,-1 -1,-1 -0.543,0.06 -0.876,0.393 -1,1 0.99999,1.33298 2.00001,2.66702 3,4 -1.64898,1.47398 -2.649,3.30706 -3,5.5 1.78295,3.63792 1.28294,6.80506 -1.5,9.5 -1.30798,-2.14095 -2.80805,-4.14105 -4.5,-6 -0.333,0.667 -0.667,1.333 -1,2 2.76694,3.53493 4.434,7.53508 5,12 -1.05698,0.406 -2.39102,0.406 -4,0 0.57,-3.92092 -1.09708,-6.088 -5,-6.5 -0.649,-2.48094 -1.64902,-2.81395 -3,-1 4.55092,4.42092 5.05093,9.25413 1.5,14.5 -1.16698,-1.66695 -2.33302,-3.33305 -3.5,-5 -0.83399,4.68592 -0.50098,9.35208 1,14 2.43994,1.60898 3.607,3.94307 3.5,7 3.17593,1.01098 5.009,3.17807 5.5,6.5 -0.405,0.94499 -1.07201,1.612 -2,2 1.65498,1.44398 2.322,3.27806 2,5.5 -2.67894,-0.173 -5.01305,-1.17305 -7,-3 -3.22293,-5.16687 -6.89008,-9.83408 -11,-14 0.012,1.91195 -0.321,3.91205 -1,6 1.66695,0.99999 3.00001,2.33305 4,4 -0.333,0.99999 -1.00001,1.667 -2,2 -0.71599,-1.98195 -1.88302,-3.64902 -3.5,-5 -0.483,0.94799 -0.649,1.94802 -0.5,3 h -3 v -9 c -2.23694,-0.94899 -4.57106,-1.616 -7,-2 v -6 c -2.21394,-0.209 -3.88102,0.62405 -5,2.5 -1.42698,3.15193 -1.75999,6.31907 -1,9.5 -2.21794,0.557 -4.55106,0.557 -7,0 -0.416,2.90594 -1.08201,5.73906 -2,8.5 0.288,2.18694 0.622,4.35406 1,6.5 -1.78795,-0.285 -3.45502,0.048 -5,1 2.90394,1.55498 5.57006,3.55506 8,6 -0.667,0.333 -1.333,0.667 -2,1 -2.76894,-0.85799 -5.43506,-1.85802 -8,-3 -0.236,-2.47294 -1.56906,-4.14001 -4,-5 -0.92899,-1.18898 -1.262,-2.52202 -1,-4 -1.78795,-0.285 -3.45502,0.048 -5,1 -1.31498,1.81595 -2.81505,3.48302 -4.5,5 -0.684,1.28398 -0.51698,2.45102 0.5,3.5 -1.49998,0.83299 -2.66701,2.00002 -3.5,3.5 0.379,1.57498 0.212,3.07502 -0.5,4.5 -1.09998,0.432 -1.767,-0.068 -2,-1.5 -0.96699,-2.26194 -1.634,-4.59506 -2,-7 -1.32198,-0.17 -2.48902,0.16301 -3.5,1 -1.20198,2.17694 -1.702,4.51106 -1.5,7 h -3 v 3 h -3 c -0.003,-3.17493 -1.00305,-6.00806 -3,-8.5 -1.54698,-0.333 -2.88002,0.16702 -4,1.5 -1.50198,-2.32694 -3.33506,-4.32705 -5.5,-6 -1.22098,0.77199 -2.22101,1.77202 -3,3 -1.06698,-0.691 -2.23402,-1.191 -3.5,-1.5 -1.26998,-4.82992 -3.10406,-9.33008 -5.5,-13.5 -1.66695,-2.66694 -3.33305,-2.66694 -5,0 -1.33298,5.13487 -2.83305,9.46807 -4.5,13 h -3 c -0.515,-10.26779 -2.84908,-10.60079 -7,-1 -0.86399,-4.28692 -2.36405,-8.28708 -4.5,-12 -2.01595,1.45498 -2.849,3.45506 -2.5,6 h -3 c 0.379,4.07592 -0.62106,7.74307 -3,11 0.209,0.586 0.543,1.086 1,1.5 -0.91599,0.278 -1.582,0.77801 -2,1.5 -1.37299,0.157 -2.70701,-0.01 -4,-0.5 2.19197,-1.35899 3.85901,-3.19203 5,-5.5 -1.85297,-1.25999 -3.68603,-1.25999 -5.5,0 -1.20299,-3.60996 -2.203,-7.27604 -3,-11 -1.75597,1.48499 -2.923,1.15197 -3.5,-1 -0.802,3.14996 -2.46803,5.81703 -5,8 -0.023,2.09997 0.64401,3.93301 2,5.5 -2.20597,3.85996 -3.206,8.02604 -3,12.5 1.05199,0.149 2.052,-0.017 3,-0.5 0.95,-2.90997 2.95004,-4.077 6,-3.5 v -3 h 6 v 6 c -1.67897,-0.215 -2.679,0.45201 -3,2 -0.333,0.667 -0.667,1.333 -1,2 -1.44298,0.83499 -2.443,2.16804 -3,4 -4.92593,1.08398 -7.426,4.08407 -7.5,9 0.414,0.457 0.914,0.791 1.5,1 0.71599,-0.81099 1.55001,-1.478 2.5,-2 l 4.5,4.5 c -0.96399,1.96396 -2.29704,3.63002 -4,5 0.333,0.5 0.667,1 1,1.5 2.48395,-1.98296 4.81705,-4.15005 7,-6.5 1.63398,-0.494 3.30104,-0.66 5,-0.5 v 6 c -1.05198,-0.149 -2.05201,0.017 -3,0.5 -2.23995,3.97393 -5.40707,6.80804 -9.5,8.5 -0.653,2.71795 -1.48702,5.38405 -2.5,8 0.333,0.99999 0.667,2.00001 1,3 2.92795,-1.42098 4.262,-0.42094 4,3 h 3 c -0.261,-3.54394 1.40507,-5.378 5,-5.5 1.58098,-1.82796 2.91502,-3.82805 4,-6 1.63398,-0.494 3.30104,-0.66 5,-0.5 v -4 c 7.63987,1.21698 7.97388,-0.11607 1,-4 -0.97999,-2.58595 -1.313,-5.25305 -1,-8 2.35795,0.247 4.35802,-0.41902 6,-2 -0.652,-4.05993 1.01507,-6.06 5,-6 v -6 c 5.44187,-1.22898 7.77499,1.10513 7,7 h 2 v 3 c 1.17498,-0.219 2.17501,0.11401 3,1 1.79695,1.19498 2.797,2.86205 3,5 2.44794,-0.415 3.781,0.58506 4,3 -0.249,2.67694 -1.24905,5.01005 -3,7 1.92295,0.80799 3.92305,1.308 6,1.5 0.581,0.89299 0.915,1.89302 1,3 -1.12898,2.36194 -1.12898,4.69506 0,7 -1.12498,1.96295 -2.45902,3.79605 -4,5.5 2.02995,3.02793 4.69707,5.36102 8,7 -2.70594,2.02395 -4.039,4.69007 -4,8 1.05198,0.149 2.05201,-0.017 3,-0.5 1.95995,-2.10595 3.79405,-4.27306 5.5,-6.5 2.02395,2.28494 4.19106,2.28494 6.5,0 -1.55198,-2.43494 -1.21894,-4.43502 1,-6 0.057,-1.10898 0.39,-2.10901 1,-3 -0.095,-5.38687 0.40502,-10.72013 1.5,-16 0.414,-0.457 0.914,-0.791 1.5,-1 0.88899,2.77894 2.05602,5.44506 3.5,8 1.58998,11.42577 3.59006,22.76023 6,34 0.414,0.457 0.914,0.791 1.5,1 0.89499,-2.87494 0.56198,-5.70806 -1,-8.5 0.522,-0.94999 1.18901,-1.78401 2,-2.5 -1.44998,-1.34998 -2.117,-3.01605 -2,-5 h 3 c 0.284,-2.75394 0.95102,-5.42006 2,-8 1.88195,0.593 3.71505,1.26001 5.5,2 0.77999,-1.88695 0.61298,-3.55402 -0.5,-5 1.15998,-5.88887 2.82706,-11.55613 5,-17 1.32198,-0.17 2.48902,0.16301 3.5,1 0.395,2.70694 0.895,5.37306 1.5,8 1.30198,-0.85699 2.63502,-1.357 4,-1.5 0.247,1.81295 0.58,3.64705 1,5.5 0.83299,-0.99999 1.66701,-2.00001 2.5,-3 0.168,5.99487 0.002,11.99513 -0.5,18 2.32694,0.253 4.32705,-0.41402 6,-2 0.333,0.83299 0.667,1.66701 1,2.5 -0.574,1.60698 -1.24001,3.10702 -2,4.5 0.689,2.85294 2.52206,4.519 5.5,5 1.01098,-0.83699 2.17802,-1.17 3.5,-1 0.667,5.33287 1.333,5.33287 2,0 h 4 c 0.629,-2.48594 1.62902,-4.81906 3,-7 0.6,-5.83587 1.60002,-11.50213 3,-17 h 3 c 2.30294,5.69087 3.637,11.69113 4,18 h 5 c -0.172,1.99195 0.49502,3.65802 2,5 -1.08798,3.80192 -2.08801,7.46807 -3,11 1.05198,-0.149 2.05201,0.017 3,0.5 -0.628,2.81794 -1.62802,5.48506 -3,8 1.47598,3.53393 4.14308,5.368 8,5.5 1.35898,1.80595 1.02495,3.30602 -1,4.5 -2.39994,0.186 -4.73406,0.68601 -7,1.5 1.33298,0.99999 2.66702,2.00001 4,3 0.92899,1.18898 1.262,2.52202 1,4 h 5 c 0.373,-4.82092 1.37302,-9.48808 3,-14 h 3 c 0.76499,3.16993 1.76502,6.17006 3,9 0.537,3.01195 0.87,6.01204 1,9 1.61099,-0.82 2.278,-2.15404 2,-4 h 4 c -0.493,-2.30596 -0.826,-4.63904 -1,-7 h 3 v -7 c 0.76099,-0.89099 1.76102,-1.558 3,-2 0.641,-3.87092 2.14106,-4.53794 4.5,-2 0.567,2.66794 1.067,5.33406 1.5,8 h 3 c -0.197,4.72992 1.80308,6.39698 6,5 -0.80399,-1.44098 -1.471,-2.94102 -2,-4.5 1.80495,-3.29093 2.805,-6.79108 3,-10.5 1.78795,0.285 3.45502,-0.048 5,-1 -0.431,-0.79299 -0.765,-1.62701 -1,-2.5 1.48798,-3.54893 2.82102,-7.04907 4,-10.5 h 3 c -0.16,1.69896 0.006,3.36602 0.5,5 0.741,1.14098 1.575,1.14098 2.5,0 0.781,1.22898 1.281,2.56202 1.5,4 l 1,-1 c 0.499,3.65194 0.665,7.31806 0.5,11 1.47798,-0.262 2.81102,0.071 4,1 -1.78596,2.90396 -2.11898,5.90406 -1,9 2.60896,-0.943 4.60902,-2.61004 6,-5 1.23598,-0.746 2.57002,-1.079 4,-1 0.151,6.4149 0.98402,12.7491 2.5,19 1.20498,0.571 2.37202,1.238 3.5,2 -4.31994,5.1909 -3.1539,6.85796 3.5,5 -0.14,-2.35096 -0.64,-4.68404 -1.5,-7 5.4579,0.123 6.45794,-1.87706 3,-6 1.33298,-2.33296 1.33298,-4.66704 0,-7 1.05898,-2.03396 2.059,-4.03404 3,-6 0.75599,-2.92294 2.09005,-5.58906 4,-8 1.88895,4.10792 2.889,8.44108 3,13 3.36393,1.04498 5.031,3.37808 5,7 0.094,2.41194 -0.90605,4.24502 -3,5.5 6.28787,1.25598 6.62087,3.42307 1,6.5 1.23798,2.13695 3.07106,3.471 5.5,4 0.49,-1.29298 0.657,-2.62702 0.5,-4 2.20194,-1.72495 2.53498,-3.89106 1,-6.5 1.81995,-4.26192 2.82,-8.76208 3,-13.5 1.32198,-0.17 2.48902,0.16301 3.5,1 1.97995,3.57192 2.814,7.23908 2.5,11 1.57098,-0.80899 3.23805,-1.143 5,-1 -0.178,-2.82194 -0.84502,-5.48906 -2,-8 0.74599,-2.17694 1.74602,-4.17705 3,-6 -3.60892,-7.28985 -2.27487,-8.62392 4,-4 0.81799,-2.60694 1.318,-5.27406 1.5,-8 0.383,-0.556 0.883,-0.889 1.5,-1 -0.268,-1.59898 0.066,-2.93202 1,-4 0.194,-2.41194 1.52706,-3.412 4,-3 1.58798,4.29292 2.92102,8.62608 4,13 h 3 v 4 h 4 c 0.079,2.16594 0.74602,4.16605 2,6 -0.72199,2.44394 -1.72202,4.77806 -3,7 0.86499,1.08298 1.86502,1.24899 3,0.5 3.57292,-1.73395 5.24,-4.56808 5,-8.5 3.59992,0.81999 5.6,3.15308 6,7 h 2 c 0.87199,-5.40587 2.03802,-10.73913 3.5,-16 1.17398,-2.17094 3.00706,-3.171 5.5,-3 0.452,5.51987 1.45202,10.85313 3,16 1.29098,-0.237 2.291,0.096 3,1 -0.423,0.765 -0.757,1.598 -1,2.5 2.98999,4.13299 3.656,8.63301 2,13.5 0.333,0.667 0.667,1.333 1,2 1.342,-1.505 3.00801,-2.172 5,-2 v -1 c -1.312,-0.645 -2.312,-1.645 -3,-3 2.31299,-1.471 2.647,-3.30401 1,-5.5 1.74699,-3.63399 2.914,-7.46701 3.5,-11.5 1.011,-0.837 2.178,-1.17 3.5,-1 0.309,4.38599 1.30901,8.55301 3,12.5 -0.344,1.365 -1.011,2.532 -2,3.5 1.45,1.35 2.117,3.01601 2,5 h 8 c -0.746,-4.72299 -2.74601,-8.88901 -6,-12.5 0.556,-0.383 0.889,-0.883 1,-1.5 h 5 c 0.262,-1.47798 -0.071,-2.81102 -1,-4 -3.72292,-1.96795 -3.72292,-3.63502 0,-5 1.26998,-4.01592 1.26998,-8.01608 0,-12 1.83795,-0.689 3.50502,-1.022 5,-1 0.108,-2.06295 -0.22501,-4.23006 -1,-6.5 2.27694,-4.26392 4.27705,-8.43108 6,-12.5 1.59899,5.20695 2.599,10.54005 3,16 h 3 c 0.24,3.07897 -0.093,6.07902 -1,9 0.915,0.828 1.581,1.82801 2,3 -1.04699,1.55599 -1.714,3.22302 -2,5 2.65698,-0.338 4.99002,0.32902 7,2 -0.847,1.34499 -2.01301,2.345 -3.5,3 -0.483,0.948 -0.649,1.94801 -0.5,3 1.99998,-0.333 4.00002,-0.667 6,-1 -0.123,-3.08797 0.87702,-5.75502 3,-8 -0.537,-1.24099 -1.204,-2.40801 -2,-3.5 1.64599,-2.59498 2.313,-5.42803 2,-8.5 1.78798,-0.285 3.45501,0.048 5,1 1.08599,3.24797 2.58602,6.24802 4.5,9 1.02699,-3.67997 0.19398,-6.84702 -2.5,-9.5 1.87598,-0.918 2.876,-2.41802 3,-4.5 1.23498,-0.221 2.23501,-0.88802 3,-2 0.97999,-2.58594 1.313,-5.25306 1,-8 0.602,-2.17998 1.93502,-3.846 4,-5 1.365,3.18698 2.199,6.52002 2.5,10 2.20998,1.68298 2.71,3.68302 1.5,6 1.398,1.63 2.398,3.46402 3,5.5 4.98898,0.499 9.98904,0.666 15,0.5 0.466,-1.70098 0.466,-3.201 0,-4.5 -4.23198,-0.371 -7.56502,-2.20502 -10,-5.5 2.14998,-1.80398 2.484,-3.97102 1,-6.5 0.184,-1.376 0.851,-2.209 2,-2.5 1.291,0.237 2.291,-0.096 3,-1 -1.1,-1.105 -1.767,-2.438 -2,-4 h 4 v -5 c 1.47798,0.262 2.81102,-0.071 4,-1 -1.24698,-1.82295 -1.914,-3.82306 -2,-6 h 3 c -0.58,-4.14892 0.086,-7.81607 2,-11 v -5 h 4 c 0.82599,6.79686 2.15905,13.46414 4,20 1.80795,-0.009 3.47502,0.49102 5,1.5 -0.457,0.414 -0.791,0.914 -1,1.5 4.18792,0.666 4.85494,2.33306 2,5 -0.641,0.98199 -1.307,1.98202 -2,3 0.124,0.607 0.457,0.94 1,1 3.34693,-2.67494 7.01408,-4.84102 11,-6.5 1.18698,-1.01898 2.18701,-2.18602 3,-3.5 -3.61592,-2.77594 -7.11607,-5.77607 -10.5,-9 -0.494,-1.63398 -0.66,-3.30105 -0.5,-5 3.68192,0.165 7.34808,-10e-4 11,-0.5 -1.07298,-1.31298 -1.74,-2.81305 -2,-4.5 1.63598,-5.51887 2.47,-11.18513 2.5,-17 1.01098,-0.83699 2.17802,-1.17 3.5,-1 -0.103,-2.71894 0.23101,-5.38506 1,-8 -0.667,-1.66695 -1.333,-3.33305 -2,-5 0.419,-1.17198 1.08501,-2.17201 2,-3 -0.82499,-0.88599 -1.82502,-1.219 -3,-1 v -3 c 1.92895,0.269 3.59502,-0.23102 5,-1.5 -2.13495,-0.75899 -3.468,-2.25906 -4,-4.5 2.32994,-2.33794 2.32994,-4.67106 0,-7 -0.79699,0.97799 -1.464,0.64498 -2,-1 0.82599,-0.95099 0.992,-1.95102 0.5,-3 -4.83292,3.49993 -9.00007,7.66708 -12.5,12.5 -1.94095,1.90295 -4.27406,2.736 -7,2.5 -0.203,-1.88995 0.46302,-3.39002 2,-4.5 -0.85699,-0.689 -1.523,-1.52201 -2,-2.5 3.37493,-3.37393 6.37506,-7.04108 9,-11 0.77599,-3.48593 1.442,-6.98607 2,-10.5 -0.333,-0.5 -0.667,-1 -1,-1.5 -0.78099,1.23698 -1.78102,2.23701 -3,3 -1.15998,-1.57298 -2.16001,-3.23905 -3,-5 1.06398,-2.45894 2.39802,-4.79206 4,-7 l -1,-1 c -2.09695,1.60998 -4.43006,2.77701 -7,3.5 -0.55,1.84495 -1.55002,3.34502 -3,4.5 -1.13898,-4.08092 0.028,-7.41406 3.5,-10 0.74899,-1.13498 0.58298,-2.13501 -0.5,-3 -1.34498,0.84699 -2.345,2.01302 -3,3.5 -1.29298,0.49 -2.62702,0.657 -4,0.5 -0.88599,-2.22194 -0.88599,-4.38805 0,-6.5 -2.65294,-3.50193 -2.31993,-6.50206 1,-9 -1.04898,-0.492 -2.04901,-0.32599 -3,0.5 -0.667,-4.66692 -1.333,-9.33308 -2,-14 -1.82095,9.70479 -3.82106,19.37221 -6,29 -2.12995,-0.96699 -4.13005,-2.13402 -6,-3.5 -3.75992,-0.193 -3.92593,0.64105 -0.5,2.5 0.684,1.28398 0.51698,2.45102 -0.5,3.5 1.83295,1.49998 3.66705,3.00002 5.5,4.5 -0.497,1.69795 -0.32999,3.36502 0.5,5 -1.97295,0.83099 -3.97305,0.998 -6,0.5 0.667,1.66695 1.333,3.33305 2,5 -0.608,0.86999 -1.44102,1.37 -2.5,1.5 -1.91995,-3.74592 -4.75308,-6.74606 -8.5,-9 -0.87399,3.82592 0.12606,7.16006 3,10 -0.167,0.667 -0.333,1.333 -0.5,2 -0.89299,-1.21098 -1.72601,-1.21098 -2.5,0 1.33298,1.99995 1.33298,4.00005 0,6 l 2,2 c -1.99995,0.667 -4.00005,1.333 -6,2 0.209,0.586 0.543,1.086 1,1.5 -2.37394,-0.402 -4.70706,-0.23599 -7,0.5 -2.15694,-1.91195 -4.49106,-3.57902 -7,-5 l -1,1 c 1.31098,0.75799 1.811,1.75802 1.5,3 -2.27394,1.35598 -4.10702,0.85594 -5.5,-1.5 0.579,-1.91395 1.57902,-3.58102 3,-5 -0.113,-1.27998 -0.78002,-2.113 -2,-2.5 -0.97399,-2.24294 -1.308,-4.57606 -1,-7 -5.03987,-0.84299 -9.04006,0.65708 -12,4.5 2.73994,3.57492 1.73992,5.408 -3,5.5 1.17798,3.70092 2.17801,7.53408 3,11.5 -0.333,0.5 -0.667,1 -1,1.5 -2.33294,-0.667 -4.66706,-1.333 -7,-2 l -1,1 c 2.66694,2.33294 5.33306,4.66706 8,7 -2.64594,2.06795 -5.64607,3.401 -9,4 2.03695,2.03095 4.37106,3.69702 7,5 0.74599,1.23598 1.079,2.57002 1,4 -3.56593,0.185 -6.89907,-0.48102 -10,-2 -0.99999,0.333 -2.00001,0.667 -3,1 1.99995,1.66695 4.00005,3.33305 6,5 l -2,2 c 2.17794,1.15698 4.17805,2.49002 6,4 -2.67494,1.49598 -4.67502,0.82894 -6,-2 -2.35394,0.56 -4.68706,1.22701 -7,2 0.99099,1.16498 1.99102,2.33202 3,3.5 -1.64598,3.44493 -2.97902,6.94507 -4,10.5 h -5 c -0.436,-5.42887 -2.43607,-10.09608 -6,-14 -1.71395,1.10898 -2.381,0.44194 -2,-2 -3.34993,0.165 -6.68307,-0.002 -10,-0.5 -1.16998,-1.75495 -2.83706,-2.755 -5,-3 1.18498,-1.35298 2.51902,-2.52001 4,-3.5 0.634,-2.06695 1.63402,-3.90002 3,-5.5 -1.97295,-0.495 -3.97305,-0.662 -6,-0.5 -0.203,-1.88995 0.46302,-3.39002 2,-4.5 -0.457,-0.414 -0.791,-0.914 -1,-1.5 1.77695,-1.40098 3.44402,-2.90102 5,-4.5 -1.33298,-0.333 -2.66702,-0.667 -4,-1 -0.80299,-3.56193 -2.80307,-4.72898 -6,-3.5 -0.88599,-0.82499 -1.219,-1.82502 -1,-3 h -3 c 0.164,-2.68694 -0.003,-5.35406 -0.5,-8 -1.60998,-2.09695 -2.77701,-4.43006 -3.5,-7 -1.21998,1.21098 -2.38702,1.21098 -3.5,0 -2.16994,3.69792 -3.67001,7.69808 -4.5,12 -1.60798,0.81799 -3.27505,1.485 -5,2 -1.16598,-1.86495 -0.83295,-3.53202 1,-5 -1.18898,-0.92899 -2.52202,-1.262 -4,-1 0.667,-3.99992 -1.00008,-5.667 -5,-5 0.514,-2.19794 1.51402,-4.19805 3,-6 -1.18898,-0.92899 -2.52202,-1.262 -4,-1 -0.445,-5.56087 -1.77906,-10.89513 -4,-16 -0.697,1.88495 -1.69702,2.21798 -3,1 -2.28694,5.05587 -3.454,10.38913 -3.5,16 -1.50698,1.00498 -2.67301,2.33802 -3.5,4 -3.93992,-1.73595 -5.607,-0.40292 -5,4 -2.02695,-0.162 -4.02705,0.005 -6,0.5 1.84995,2.01795 3.85006,3.85102 6,5.5 -0.333,0.667 -0.667,1.333 -1,2 1.44998,1.34998 2.117,3.01605 2,5 -2.02695,-0.162 -4.02705,0.005 -6,0.5 1.42798,1.91595 2.428,4.08306 3,6.5 1.66695,0.99999 3.00001,2.33305 4,4 -2.36494,0.585 -4.36502,1.75205 -6,3.5 -3.50893,-0.021 -6.67506,0.81205 -9.5,2.5 -0.414,-0.457 -0.914,-0.791 -1.5,-1 -1.29498,2.51194 -1.961,5.17906 -2,8 h -3 v 9 h -5 c -0.89299,-3.91892 -2.22605,-7.75208 -4,-11.5 1.61198,-1.48198 2.612,-3.31506 3,-5.5 -2.09095,0.182 -4.09105,-0.15201 -6,-1 -1.13098,1.25098 -2.46402,2.25101 -4,3 -0.667,-0.333 -1.333,-0.667 -2,-1 1.36498,-1.44098 2.86502,-2.77402 4.5,-4 -0.317,-3.61892 1.18307,-6.61906 4.5,-9 -1.57398,-1.13098 -3.24105,-1.29799 -5,-0.5 -2.64094,3.39093 -4.97405,3.22392 -7,-0.5 2.62394,-2.65794 5.29106,-5.32506 8,-8 -3.74092,-0.424 -6.74106,-2.09006 -9,-5 2.54894,-1.70395 4.88305,-3.70406 7,-6 0.88599,-0.82499 1.219,-1.82502 1,-3 -2.99994,0.667 -6.00006,1.333 -9,2 0.74799,-2.08395 0.74799,-4.08405 0,-6 2.90194,-2.35094 3.56898,-5.18407 2,-8.5 -0.94799,-0.483 -1.94802,-0.649 -3,-0.5 0.557,-2.44894 0.557,-4.78206 0,-7 -2.76994,-2.52994 -6.10308,-3.53 -10,-3 0.011,2.04695 0.344,4.04705 1,6 -0.425,1.87995 -1.42502,3.38002 -3,4.5 2.86294,3.80892 2.19592,6.97606 -2,9.5 -0.91499,-0.82799 -1.581,-1.82802 -2,-3 0.82599,-0.95099 0.992,-1.95102 0.5,-3 -2.30494,1.52198 -3.805,3.52206 -4.5,6 -1.64298,0.02 -2.97602,-0.64702 -4,-2 -0.99999,0.667 -2.00001,1.333 -3,2 -0.73099,-1.90095 -0.73099,-3.90105 0,-6 -1.98395,-0.117 -3.65002,0.55002 -5,2 l -1,-1 c 0.81099,-0.71599 1.478,-1.55001 2,-2.5 -1.07698,-2.85594 -1.24399,-5.68906 -0.5,-8.5 -0.83699,1.50698 -2.00402,2.007 -3.5,1.5 2.33494,-3.85692 4.00201,-8.02308 5,-12.5 l -1,-1 c -1.07898,2.04295 -2.74606,3.376 -5,4 -1.25998,5.83387 -2.92605,6.16787 -5,1 0.82599,-0.95099 0.992,-1.95102 0.5,-3 -1.49398,1.24698 -2.99402,1.24698 -4.5,0 1.58698,-1.94595 1.25394,-3.44602 -1,-4.5 1.89295,-2.30294 3.89305,-4.47005 6,-6.5 -0.333,-0.667 -0.667,-1.333 -1,-2 1.20898,-1.91495 2.54202,-3.74805 4,-5.5 -0.336,-1.02998 -1.00301,-1.53 -2,-1.5 -1.56998,3.45293 -4.23708,5.453 -8,6 -0.606,-5.27287 -0.606,-10.60613 0,-16 h -3 c -0.251,-5.00687 -0.584,-10.00708 -1,-15 z"
     style="opacity:1;fill:#2d5c44;stroke-width:0"
     id="path125" />
  <g
     id="g65"
     style="stroke:none;stroke-width:0;stroke-dasharray:none;stroke-opacity:1">
    <path
       style="opacity:1;stroke:none;stroke-width:0;stroke-dasharray:none;stroke-opacity:1"
       fill="#618c81"
       d="m 686.5,281.5 c 0.765,1.16 1.765,2.16 3,3 2.584,-1.288 4.084,-0.622 4.5,2 -0.667,0.667 -1.333,1.333 -2,2 -1.507,-1.508 -3.173,-2.841 -5,-4 -0.483,-0.948 -0.649,-1.948 -0.5,-3 z"
       id="path65" />
  </g>
  <g
     id="g67"
     style="stroke:none;stroke-width:0;stroke-dasharray:none;stroke-opacity:1">
    <path
       style="opacity:1;stroke:none;stroke-width:0;stroke-dasharray:none;stroke-opacity:1"
       fill="#5c9877"
       d="m 517.5,285.5 c 1,0 2,0 3,0 0.237,3.527 -1.097,6.194 -4,8 -2.857,-0.575 -4.524,-2.242 -5,-5 2.813,0.475 4.813,-0.525 6,-3 z"
       id="path67" />
  </g>
  <g
     id="g68"
     style="stroke:none;stroke-width:0;stroke-dasharray:none;stroke-opacity:1">
    <path
       style="opacity:1;stroke:none;stroke-width:0;stroke-dasharray:none;stroke-opacity:1"
       fill="#2d5e46"
       d="m 625.5,283.5 c 3.469,0.951 6.136,2.951 8,6 -2.491,0.329 -4.657,1.329 -6.5,3 -0.502,-3.013 -1.002,-6.013 -1.5,-9 z"
       id="path68" />
  </g>
  <g
     id="g69"
     style="stroke:none;stroke-width:0;stroke-dasharray:none;stroke-opacity:1">
    <path
       style="opacity:1;stroke:none;stroke-width:0;stroke-dasharray:none;stroke-opacity:1"
       fill="#578a75"
       d="m 664.5,282.5 c 0.952,0.952 1.952,1.952 3,3 -1,0.667 -2,1.333 -3,2 1.505,1.342 2.172,3.008 2,5 -1.333,0 -2.667,0 -4,0 -0.466,-3.662 0.201,-6.995 2,-10 z"
       id="path69" />
  </g>
  <g
     id="g70"
     style="stroke:none;stroke-width:0;stroke-dasharray:none;stroke-opacity:1">
    <path
       style="opacity:1;stroke:none;stroke-width:0;stroke-dasharray:none;stroke-opacity:1"
       fill="#5f9674"
       d="m 580.5,289.5 c 0.876,-0.131 1.543,0.202 2,1 -0.85,5.446 -2.85,6.113 -6,2 1.684,-0.65 3.017,-1.65 4,-3 z"
       id="path70" />
  </g>
  <g
     id="g71"
     style="stroke:none;stroke-width:0;stroke-dasharray:none;stroke-opacity:1">
    <path
       style="opacity:1;stroke:none;stroke-width:0;stroke-dasharray:none;stroke-opacity:1"
       fill="#5e9776"
       d="m 522.5,287.5 c 0.996,-0.086 1.829,0.248 2.5,1 0.681,2.395 1.515,4.728 2.5,7 2.093,2.158 3.759,4.492 5,7 1.175,-0.219 2.175,0.114 3,1 -2.547,1.039 -4.547,0.205 -6,-2.5 -1.293,-0.49 -2.627,-0.657 -4,-0.5 -0.827,-3.642 -2.16,-7.142 -4,-10.5 0.243,-0.902 0.577,-1.735 1,-2.5 z"
       id="path71" />
  </g>
  <g
     id="g75"
     style="stroke:none;stroke-width:0;stroke-dasharray:none;stroke-opacity:1">
    <path
       style="opacity:1;stroke:none;stroke-width:0;stroke-dasharray:none;stroke-opacity:1"
       fill="#5f9978"
       d="m 385.5,305.5 c 3.926,-1.028 7.926,-0.694 12,1 -3.768,1.434 -6.102,4.1 -7,8 -0.952,-1.545 -1.285,-3.212 -1,-5 -1,0 -2,0 -3,0 0.268,-1.599 -0.066,-2.932 -1,-4 z"
       id="path75" />
  </g>
  <path
     d="m 598.23242,264.47461 c -0.23881,-0.005 -0.48342,0.004 -0.73242,0.0254 0.157,1.373 -0.01,2.707 -0.5,4 -3.18199,0.828 -5.68201,2.49401 -7.5,5 1.359,0.507 2.359,1.507 3,3 1.236,0.746 2.57,1.079 4,1 0.12,3.54199 -0.214,7.04201 -1,10.5 2.31299,3.14699 3.98,6.64701 5,10.5 -1.175,-0.219 -2.175,0.114 -3,1 1.018,1.352 2.351,2.352 4,3 -1,1.333 -2,2.667 -3,4 5.39598,2.65899 5.22998,4.99201 -0.5,7 -0.678,2.09799 -0.511,4.09801 0.5,6 h 5 1 v 8 c 1.78799,-0.285 3.455,0.048 5,1 -0.994,2.89899 0.006,3.566 3,2 1.034,-3.10299 2.367,-5.93701 4,-8.5 -0.569,-4.53299 -1.236,-9.03301 -2,-13.5 1.545,-0.952 3.21201,-1.285 5,-1 -0.164,-2.68699 0.003,-5.35401 0.5,-8 1.76999,-1.81499 1.60299,-3.482 -0.5,-5 1.068,-0.934 2.401,-1.268 4,-1 v -5 c -1.208,0.734 -2.541,1.067 -4,1 0.17,1.322 -0.163,2.489 -1,3.5 -2.67599,0.74 -5.34201,1.073 -8,1 1.6,-1.81499 3.60001,-2.982 6,-3.5 0.886,-0.825 1.219,-1.825 1,-3 -1.69899,0.16 -3.366,-0.006 -5,-0.5 0.522,-0.561 0.855,-1.228 1,-2 -1.166,-3.15199 -2.166,-6.31901 -3,-9.5 -2.09099,-0.182 -4.09101,0.152 -6,1 0.054,-3.25599 -0.612,-6.58901 -2,-10 -1.17425,-1.31687 -2.59587,-1.99237 -4.26758,-2.02539 z"
     style="opacity:1;fill:#2d5e40;stroke-width:0"
     id="path128" />
  <g
     id="g79"
     style="stroke:none;stroke-width:0;stroke-dasharray:none;stroke-opacity:1">
    <path
       style="opacity:1;stroke:none;stroke-width:0;stroke-dasharray:none;stroke-opacity:1"
       fill="#2a5842"
       d="m 631.5,314.5 c -0.667,-0.333 -1.333,-0.667 -2,-1 0.203,-1.544 0.87,-2.878 2,-4 -2.432,-2.909 -2.432,-5.909 0,-9 -1.128,-0.762 -2.295,-1.429 -3.5,-2 -0.783,-1.819 -0.283,-3.152 1.5,-4 3.907,1.808 6.407,4.808 7.5,9 0.687,-2.926 2.52,-4.259 5.5,-4 0.577,3.732 0.577,7.398 0,11 0.565,1.905 1.565,3.571 3,5 -1.826,0.42 -3.826,0.42 -6,0 -0.133,-3.396 -1.133,-3.729 -3,-1 -1.628,-1.035 -3.295,-1.035 -5,0 z"
       id="path79" />
  </g>
  <g
     id="g80"
     style="stroke:none;stroke-width:0;stroke-dasharray:none;stroke-opacity:1">
    <path
       style="opacity:1;stroke:none;stroke-width:0;stroke-dasharray:none;stroke-opacity:1"
       fill="#2c5744"
       d="m 661.5,307.5 c 0.333,-0.667 0.667,-1.333 1,-2 2.016,-0.986 3.349,-2.653 4,-5 3.303,1.489 5.97,3.655 8,6.5 2.978,0.696 5.978,1.196 9,1.5 0.17,1.322 -0.163,2.489 -1,3.5 -3.667,0.667 -7.333,0.667 -11,0 -2.65,-2.906 -5.983,-4.406 -10,-4.5 z"
       id="path80" />
  </g>
  <g
     id="g82"
     style="stroke:none;stroke-width:0;stroke-dasharray:none;stroke-opacity:1">
    <path
       style="opacity:1;stroke:none;stroke-width:0;stroke-dasharray:none;stroke-opacity:1"
       fill="#5f9978"
       d="m 463.5,316.5 c 0.876,-0.131 1.543,0.202 2,1 -0.746,1.236 -1.079,2.57 -1,4 -1,0 -2,0 -3,0 -0.667,5.333 -1.333,5.333 -2,0 -2.283,-0.108 -4.283,-0.941 -6,-2.5 3.538,-0.535 6.872,-1.368 10,-2.5 z"
       id="path82" />
  </g>
  <g
     id="g84"
     style="stroke:none;stroke-width:0;stroke-dasharray:none;stroke-opacity:1">
    <path
       style="opacity:1;stroke:none;stroke-width:0;stroke-dasharray:none;stroke-opacity:1"
       fill="#58896b"
       d="m 372.5,319.5 c 5.91,0.456 6.243,1.789 1,4 -0.929,-1.189 -1.262,-2.522 -1,-4 z"
       id="path84" />
  </g>
  <g
     id="g87"
     style="stroke:none;stroke-width:0;stroke-dasharray:none;stroke-opacity:1">
    <path
       style="opacity:1;stroke:none;stroke-width:0;stroke-dasharray:none;stroke-opacity:1"
       fill="#2c5746"
       d="m 106.5,332.5 c 0,-1 0,-2 0,-3 2.554,-0.888 5.221,-1.221 8,-1 0,1.667 0,3.333 0,5 -2.779,0.221 -5.446,-0.112 -8,-1 z"
       id="path87" />
  </g>
  <g
     id="g88"
     style="stroke:none;stroke-width:0;stroke-dasharray:none;stroke-opacity:1">
    <path
       style="opacity:1;stroke:none;stroke-width:0;stroke-dasharray:none;stroke-opacity:1"
       fill="#295547"
       d="m 637.5,336.5 c 0,-0.667 -0.333,-1 -1,-1 -2.591,-2.562 -2.258,-4.895 1,-7 0.886,0.825 1.219,1.825 1,3 1.43,0.079 2.764,-0.254 4,-1 1.676,4.59 0.01,6.59 -5,6 z"
       id="path88" />
  </g>
  <g
     id="g98"
     style="stroke:none;stroke-width:0;stroke-dasharray:none;stroke-opacity:1">
    <path
       style="opacity:1;stroke:none;stroke-width:0;stroke-dasharray:none;stroke-opacity:1"
       fill="#2f5b4c"
       d="m 198.5,371.5 c 1,0 2,0 3,0 -0.12,2.234 0.213,4.401 1,6.5 -0.598,1.301 -1.598,2.135 -3,2.5 -1.539,-2.981 -1.873,-5.981 -1,-9 z"
       id="path98" />
  </g>
  <g
     id="g103"
     style="stroke:none;stroke-width:0;stroke-dasharray:none;stroke-opacity:1">
    <path
       style="opacity:1;stroke:none;stroke-width:0;stroke-dasharray:none;stroke-opacity:1"
       fill="#2b5546"
       d="m 262.5,385.5 c 2.97,0.246 4.303,1.912 4,5 -4.076,0.206 -5.409,-1.461 -4,-5 z"
       id="path103" />
  </g>
  <g
     id="g106"
     style="stroke:none;stroke-width:0;stroke-dasharray:none;stroke-opacity:1">
    <path
       style="opacity:1;stroke:none;stroke-width:0;stroke-dasharray:none;stroke-opacity:1"
       fill="#2b5745"
       d="m 539.5,380.5 c 4.43,0.359 6.763,2.693 7,7 -4.158,1.718 -8.491,3.051 -13,4 0,-1.333 0,-2.667 0,-4 1.762,0.143 3.429,-0.191 5,-1 1.276,-1.114 1.276,-2.114 0,-3 -0.237,-1.291 0.096,-2.291 1,-3 z"
       id="path106" />
  </g>
  <g
     id="g110"
     style="stroke:none;stroke-width:0;stroke-dasharray:none;stroke-opacity:1">
    <path
       style="opacity:1;stroke:none;stroke-width:0;stroke-dasharray:none;stroke-opacity:1"
       fill="#2c584b"
       d="m 327.5,410.5 c 3,-0.333 4.333,1 4,4 -3.94,0.734 -5.273,-0.599 -4,-4 z"
       id="path110" />
  </g>
</svg>
